<?xml version="1.0" encoding="UTF-8"?>
<svg id="Layer_2" data-name="Layer 2" xmlns="http://www.w3.org/2000/svg" viewBox="0 0 1083.66 692.3">
  <defs>
    <style>
      .cls-1 {
        fill: #000;
      }

      .cls-1, .cls-2 {
        stroke-width: 0px;
      }

      .cls-3, .cls-4 {
        stroke: #000;
        stroke-miterlimit: 10;
      }

      .cls-3, .cls-2 {
        fill: #fff;
      }

      .cls-4 {
        fill: none;
        stroke-width: 5px;
      }
    </style>
  </defs>
  <g id="Arrows">
    <polyline class="cls-3" points="826.99 649.57 841.67 661.74 938.19 565.39 982.68 551.11 1019.64 534.33 1019.64 509.15 991.85 509.15 970.83 530.13 983.16 542.44 933.83 557.7 923.32 554.93"/>
    <polyline class="cls-3" points="903.37 198.01 922.48 192.17 930.94 192.17 976.56 241.36 1003.16 241.36 1016.8 259.28 1008.42 270.86 964.72 273.24 907.04 215.57"/>
    <polygon class="cls-3" points="6.46 182.2 6.46 230.91 25.14 249.59 31 249.59 31 251.98 36.01 251.98 69.88 251.47 71.25 316.66 118.39 372.92 122.12 372.92 157.01 407.81 186.75 407.81 185.38 190.38 129.04 190.75 129.04 258.24 128.65 261.67 97.54 260.8 57.76 218.85 57.76 182.2 6.46 182.2"/>
    <path class="cls-2" d="M248.22,73.74h49.15l-.02,2.29h138.84l26.77-26.77h171.33l16.31,16.31,52.45,52.45h37.79l11.37,11.37v30.64l43.74,43.74h9.82l80.85,80.85,33.77.51,53,53,90.53-.51,19.76,19.76v78.03h-100.63l-56.68,56.68h-50.87l-94.23,94.23v25.29h-50.3v35.11s-16.93,27.17-27.17,27.17h-75.6l-7.38-7.38h-254.57l-55.66-55.66v-40.67l-35.83-35.83h-95.78l-36.7-36.7V167.37l-30.83-30.83,28.86-28.86-10.73-10.73,18.76-18.76,11.82-11.82"/>
    <g>
      <path class="cls-1" d="M958.79,282.43h72.54v-16.16l-29.5-29.5h-24.14l-89.16-89.16v-16.63l-28.77-28.77-8.32,8.32-14.82,14.82v34.92l16.36,16.36h20.22l23.76,23.76v20.22l61.81,61.81ZM999.65,268.78h-25.85l-16.47-16.47h-13.55l-33.14-33.15v-16.26l7.09-7.09h8.13l52.95,52.95h21.47l6.05,6.05v7.3l-6.67,6.67Z"/>
      <polygon class="cls-1" points="771.85 211.73 708.4 148.28 708.4 107.22 709.21 107.22 732.2 107.22 754.71 129.74 754.71 152.73 813.72 211.73 771.85 211.73"/>
      <path class="cls-1" d="M899.56,315.6c0-4.63,3.77-8.4,8.4-8.4s8.4,3.77,8.4,8.4-3.77,8.4-8.4,8.4-8.4-3.77-8.4-8.4Z"/>
      <path class="cls-1" d="M670.38,132.7c0-4.63,3.77-8.4,8.4-8.4s8.4,3.77,8.4,8.4-3.77,8.4-8.4,8.4-8.4-3.77-8.4-8.4Z"/>
      <path class="cls-1" d="M749.15,211.73h14.83l-61.14-60.49v-42.9h-34.36l-11.91,11.79-12.51,12.37,26.32,23.67h25.02l53.76,55.56ZM678.77,146.65c-7.7,0-13.96-6.26-13.96-13.96s6.26-13.96,13.96-13.96,13.96,6.26,13.96,13.96-6.26,13.96-13.96,13.96Z"/>
      <polygon class="cls-1" points="788.74 563.35 744.83 563.35 771.44 536.73 796.46 536.73 833.51 499.68 833.51 435.89 853.52 415.88 875.48 415.88 875.48 476.61 788.74 563.35"/>
      <polygon class="cls-1" points="825.53 461.72 825.53 471.06 730.95 565.64 730.95 556.3 825.53 461.72"/>
      <circle class="cls-1" cx="1004.59" cy="525.4" r="8.4" transform="translate(-114.88 346.42) rotate(-18.53)"/>
      <circle class="cls-1" cx="758.15" cy="596.84" r="8.4"/>
      <rect class="cls-1" x="854.15" y="120.47" width="11.26" height="11.26" transform="translate(1556.89 -392.69) rotate(135)"/>
      <g>
        <polygon class="cls-1" points="700.52 454.93 694.96 454.93 694.96 503.26 679.67 518.55 683.6 522.48 700.52 505.56 700.52 454.93"/>
        <polygon class="cls-1" points="683.6 273.29 679.67 277.22 694.96 292.51 694.96 340.84 700.52 340.84 700.52 290.21 683.6 273.29"/>
      </g>
      <polygon class="cls-1" points="1044.65 569.18 1026.76 587.07 992.61 587.07 992.61 592.63 1029.06 592.63 1048.58 573.11 1044.65 569.18"/>
      <polygon class="cls-1" points="1029.06 203.14 992.61 203.14 992.61 208.7 1026.76 208.7 1044.65 226.59 1048.58 222.66 1029.06 203.14"/>
      <path class="cls-1" d="M886.6,491.4h41.81l6.55-6.55,2.22-2.22,7.52-7.52,3.34-3.34,6.41-6.41,4.45-4.45,5.55-5.55,5.56-5.56h0s101.62,0,101.62,0l12.04-12.04v-21.89h-197.06v75.51ZM897.85,438.39v-11.26h11.26v11.26h-11.26ZM942.39,455.37l5.56-5.56h18.16l-5.56,5.56h-18.16ZM932.39,465.36l4.45-4.45h18.16l-4.45,4.45h-18.16ZM922.65,475.1l3.34-3.34h18.16l-3.34,3.34h-18.16ZM912.91,484.85l2.22-2.22h18.16l-2.22,2.22h-18.16Z"/>
      <path class="cls-1" d="M672.23,692.3h48.87l24.37-24.37v-15.64l130.01-130.01v-30.88h-6.93l-77.51,77.51h-51.77l-8.32,8.32v45.97l-31.43,31.43h-20.96s-2.32-2.31-2.32-2.31h0l-.5-.5-22.01,22.01.49.49h0l4.12,4.12h0s13.87,13.87,13.87,13.87ZM758.15,610.8c-7.7,0-13.96-6.26-13.96-13.96s6.26-13.96,13.96-13.96,13.96,6.26,13.96,13.96-6.26,13.96-13.96,13.96ZM667.04,666.15l-7.71,7.71-2.32-2.32,7.71-7.71,2.32,2.32ZM666.36,662.2l4.91-4.91,2.32,2.32-4.91,4.91-2.32-2.32ZM678.05,655.15l-3.49,3.49-2.32-2.32,3.49-3.49,2.32,2.32Z"/>
      <path class="cls-1" d="M894.8,379.89h41.59l11.26-11.26h50.19l11.26,11.26h74.58v-22.51l-23.14-23.14h-90.29l-50.41-50.41h-34l-60.98-60.98h-64.56l82.31,82.31v22.51l52.22,52.22ZM907.96,329.56c-7.7,0-13.96-6.26-13.96-13.96s6.26-13.96,13.96-13.96,13.96,6.26,13.96,13.96-6.26,13.96-13.96,13.96ZM1072.28,371.91v-7.5h5.56v7.5h-5.56ZM1055.04,371.91v-7.5h4.26v7.5h-4.26ZM1042.61,371.91v-7.5h2.96v7.5h-2.96ZM1033.04,364.41h1.67v7.5h-1.67v-7.5Z"/>
      <g>
        <path class="cls-1" d="M1071.79,408.79v2.79s.04.08.09.08h.8s.09-.04.09-.08v-2.79s-.04-.08-.09-.08h-.8c-.05,0-.09.04-.09.08ZM1071.68,408.24h1.2c.19,0,.34.14.34.32v3.26c0,.17-.15.32-.34.32h-1.2c-.19,0-.34-.14-.34-.32v-3.26c0-.17.15-.32.34-.32Z"/>
        <path class="cls-1" d="M1042.04,408.79v2.79s.04.08.09.08h.8s.09-.04.09-.08v-2.79s-.04-.08-.09-.08h-.8c-.05,0-.09.04-.09.08ZM1041.93,408.24h1.2c.19,0,.34.14.34.32v3.26c0,.17-.15.32-.34.32h-1.2c-.19,0-.34-.14-.34-.32v-3.26c0-.17.15-.32.34-.32Z"/>
        <path class="cls-1" d="M1012.29,408.79v2.79s.04.08.09.08h.8c.05,0,.09-.04.09-.08v-2.79s-.04-.08-.09-.08h-.8c-.05,0-.09.04-.09.08ZM1012.18,408.24h1.2c.19,0,.34.14.34.32v3.26c0,.17-.15.32-.34.32h-1.2c-.19,0-.34-.14-.34-.32v-3.26c0-.17.15-.32.34-.32Z"/>
        <path class="cls-1" d="M982.53,408.79v2.79s.04.08.09.08h.8s.09-.04.09-.08v-2.79s-.04-.08-.09-.08h-.8c-.05,0-.09.04-.09.08ZM982.42,408.24h1.2c.19,0,.34.14.34.32v3.26c0,.17-.15.32-.34.32h-1.2c-.19,0-.34-.14-.34-.32v-3.26c0-.17.15-.32.34-.32Z"/>
        <path class="cls-1" d="M952.78,408.79v2.79s.04.08.09.08h.8s.09-.04.09-.08v-2.79s-.04-.08-.09-.08h-.8c-.05,0-.09.04-.09.08ZM952.67,408.24h1.2c.19,0,.34.14.34.32v3.26c0,.17-.15.32-.34.32h-1.2c-.19,0-.34-.14-.34-.32v-3.26c0-.17.15-.32.34-.32Z"/>
        <path class="cls-1" d="M923.03,408.79v2.79s.04.08.09.08h.8c.05,0,.09-.04.09-.08v-2.79s-.04-.08-.09-.08h-.8c-.05,0-.09.04-.09.08ZM922.92,408.24h1.2c.19,0,.34.14.34.32v3.26c0,.17-.15.32-.34.32h-1.2c-.19,0-.34-.14-.34-.32v-3.26c0-.17.15-.32.34-.32Z"/>
        <path class="cls-1" d="M893.28,408.79v2.79s.04.08.09.08h.8s.09-.04.09-.08v-2.79s-.04-.08-.09-.08h-.8c-.05,0-.09.04-.09.08ZM893.16,408.24h1.2c.19,0,.34.14.34.32v3.26c0,.17-.15.32-.34.32h-1.2c-.19,0-.34-.14-.34-.32v-3.26c0-.17.15-.32.34-.32Z"/>
        <path class="cls-1" d="M863.52,408.79v2.79s.04.08.09.08h.8s.09-.04.09-.08v-2.79s-.04-.08-.09-.08h-.8c-.05,0-.09.04-.09.08ZM863.41,408.24h1.2c.19,0,.34.14.34.32v3.26c0,.17-.15.32-.34.32h-1.2c-.19,0-.34-.14-.34-.32v-3.26c0-.17.15-.32.34-.32Z"/>
      </g>
      <polygon class="cls-1" points="760.5 243.79 681.08 243.79 681.08 275.25 682.19 275.25 682.19 244.91 760.04 244.91 816.07 300.94 816.07 318.55 877.8 380.28 878.58 379.49 817.18 318.09 817.18 300.48 760.5 243.79"/>
      <polygon class="cls-1" points="787.21 322.78 761.68 348.31 761.68 392.45 740.83 371.59 740.83 344.48 756.97 328.34 773.68 311.63 788.7 311.63 799.85 322.78 787.21 322.78"/>
      <polygon class="cls-1" points="787.98 419.94 777.43 409.4 777.43 363.63 801.33 339.73 815.61 339.73 824.42 348.54 824.42 358.67 842.88 377.13 842.88 388.7 819.22 388.7 809.87 398.05 809.87 426.88 798.36 438.39 787.98 438.39 787.98 419.94"/>
      <g>
        <path class="cls-1" d="M899.78,583.45l-.05-.05c-.12-.12-.25-.2-.38-.23-.14-.04-.28-.04-.42,0-.14.04-.27.12-.39.24-.12.12-.2.25-.24.39-.04.14-.04.28,0,.42.04.14.12.27.24.39l.06.06c.12.12.26.21.4.25.14.04.29.05.43,0,.14-.04.27-.12.39-.24.12-.12.2-.25.24-.4.04-.14.03-.29-.01-.43-.05-.15-.13-.28-.26-.41Z"/>
        <path class="cls-1" d="M887.27,600.34l-2-2c-.27-.27-.53-.43-.77-.47-.24-.04-.47.04-.69.25-.21.21-.3.44-.25.69.04.24.2.5.47.77l2,2c.27.27.53.43.77.47.24.04.47-.04.69-.25.21-.21.3-.44.25-.69-.05-.24-.2-.5-.47-.77Z"/>
        <path class="cls-1" d="M902.23,585.68l-.05-.05c-.12-.13-.26-.21-.42-.24-.15-.03-.31-.02-.47.03-.16.06-.31.15-.45.3-.14.14-.24.29-.3.45-.05.16-.06.32-.03.47.04.16.12.3.24.42l.06.06c.14.14.29.23.45.27s.33.04.49-.01c.16-.05.32-.15.46-.29.14-.14.24-.29.29-.46.05-.17.05-.33,0-.5-.04-.17-.13-.32-.27-.45Z"/>
        <path class="cls-1" d="M863.77,621.88c-.14-.05-.28-.05-.42-.02-.14.04-.27.12-.4.25-.2.2-.28.42-.26.66s.16.49.4.73l.63.63c.24.24.48.37.72.39.24.02.46-.07.65-.26.13-.13.21-.26.25-.39.04-.14.04-.27,0-.41-.05-.14-.13-.27-.26-.4l-.9-.9c-.14-.14-.27-.23-.41-.28Z"/>
        <path class="cls-1" d="M892.63,594.98l-2-2c-.27-.27-.53-.43-.77-.47-.24-.04-.47.04-.69.25-.21.21-.3.44-.25.69.04.24.2.5.47.77l2,2c.27.27.53.43.77.47s.47-.04.69-.25c.21-.21.3-.44.25-.69-.04-.24-.2-.5-.47-.77Z"/>
        <path class="cls-1" d="M881.9,605.71l-2-2c-.27-.27-.53-.43-.77-.47-.24-.04-.47.04-.69.25-.21.21-.3.44-.25.69.04.24.2.5.47.77l2,2c.27.27.53.43.77.47s.47-.04.69-.25c.21-.21.3-.44.25-.69-.04-.24-.2-.5-.47-.77Z"/>
        <path class="cls-1" d="M854.47,634.33c.14.05.28.05.41,0,.14-.04.27-.12.39-.25.2-.2.28-.42.26-.65-.02-.24-.15-.48-.39-.72l-.63-.63c-.24-.24-.49-.38-.73-.4-.24-.03-.46.06-.66.26-.13.13-.21.26-.25.4-.04.14-.03.28.02.42.05.14.14.28.28.41l.9.9c.13.13.26.22.4.26Z"/>
        <path class="cls-1" d="M846.21,642.59c.14.05.28.05.41,0,.14-.04.27-.12.39-.25.2-.2.29-.42.26-.65-.02-.24-.15-.48-.39-.72l-.63-.63c-.24-.24-.49-.38-.73-.4-.24-.03-.46.06-.66.26-.13.13-.21.26-.25.4-.04.14-.03.28.02.42s.14.28.28.41l.9.9c.13.13.26.22.4.26Z"/>
        <path class="cls-1" d="M998.09,495.82l-17.51,17.51-38.56,38.56h-21.78l-101.05,101.05,14.33,14.33h51.28l22.51-22.51v-15.38l70.4-70.4h27.58l26.06-26.06v-37.11h-33.25ZM837.87,653.33l-.38-.38c.02.08.03.17.03.26-.02.22-.09.44-.21.66-.13.23-.29.43-.48.63-.43.43-.85.64-1.26.65-.41,0-.83-.2-1.24-.61-.39-.39-.57-.81-.53-1.24.04-.43.3-.89.77-1.36l.96-.96-.17-.17c-.18-.18-.39-.26-.61-.24-.22.02-.45.15-.67.37-.15.15-.27.32-.37.51-.1.19-.16.39-.18.59h-1.29c-.02-.33.05-.68.21-1.04.16-.36.4-.7.72-1.02.35-.35.7-.59,1.07-.72.36-.13.72-.15,1.07-.06.35.09.68.29.99.61l2.56,2.56-.96.96ZM843.25,647.96l-1.92-.49.46,1.95-1.12,1.12-.74-3.39-3.18-.65,1.16-1.16,1.85.47-.56-1.77,1.16-1.16.83,3.26,3.22.66-1.16,1.16ZM847.91,646.53l-5.6-5.6,1.05-1.05.52.52c-.07-.25-.08-.5-.04-.73.05-.3.18-.56.39-.77.28-.28.59-.45.93-.52.34-.07.69-.02,1.05.14.37.16.73.42,1.1.78l.64.64c.36.36.62.73.77,1.09.15.36.2.71.13,1.05-.07.34-.24.65-.52.93-.23.23-.49.37-.78.42-.23.04-.47.02-.71-.06l2.13,2.13-1.05,1.05ZM851.42,639.78l-1.05-1.05,1.05-1.05,1.05,1.05-1.05,1.05ZM856.17,638.27l-5.6-5.6,1.05-1.05.52.52c-.07-.25-.08-.5-.04-.73.05-.3.18-.56.39-.77.28-.28.59-.45.93-.52.34-.06.69-.02,1.05.14.37.16.73.42,1.1.78l.64.64c.36.36.62.73.77,1.09.15.36.2.71.13,1.05-.07.34-.24.65-.52.93-.23.23-.49.37-.78.42-.23.04-.47.02-.71-.06l2.13,2.13-1.05,1.05ZM860.01,631.2l-3.98-3.98,1.13-1.13.54.54c-.07-.26-.09-.51-.05-.75.04-.31.17-.57.38-.78.17-.17.34-.29.53-.37.19-.08.38-.12.58-.12l.24,1.47c-.1,0-.2.02-.3.07-.1.05-.2.12-.3.22-.21.21-.31.45-.29.7.02.25.15.5.4.74l2.25,2.25-1.13,1.13ZM866.61,624.59l-.51-.51c.08.24.1.48.06.71-.05.29-.19.55-.42.78-.28.28-.59.46-.93.52-.34.07-.69.02-1.05-.13-.36-.15-.73-.41-1.09-.77l-.64-.64c-.37-.37-.63-.73-.78-1.1-.16-.37-.2-.72-.14-1.05.07-.34.24-.65.52-.93.21-.21.47-.34.77-.39.23-.04.48-.02.73.04l-2.12-2.12,1.05-1.05,5.58,5.58-1.05,1.05ZM872.47,618.27c-.06.25-.16.49-.31.73-.14.24-.32.47-.54.69-.38.38-.78.63-1.19.76-.41.13-.83.12-1.25-.02-.42-.14-.82-.4-1.21-.79l-.43-.43c-.39-.39-.65-.79-.78-1.2-.13-.41-.13-.83,0-1.24.13-.41.38-.81.76-1.19.22-.22.45-.4.69-.54.24-.14.49-.24.74-.3.25-.06.49-.07.73-.04l-.02,1.34c-.19,0-.37.05-.55.13-.18.08-.34.19-.49.34-.27.27-.4.54-.4.83,0,.29.12.56.38.82l.43.43c.27.27.55.4.83.4.29,0,.57-.14.83-.4.15-.15.26-.31.33-.5.08-.18.11-.37.11-.57l1.38.02c.03.24.01.48-.05.73ZM876.11,615.13c-.35.35-.69.51-1.03.5-.34-.02-.68-.2-1.03-.54l-2.05-2.05-.41.41-.9-.9.41-.41-1.16-1.16,1.05-1.05,1.16,1.16.49-.49.9.9-.49.49,1.79,1.79c.1.1.19.15.28.17.09.01.17-.02.25-.09l.26-.26,1.01,1.01-.53.53ZM878.55,612.66l-1.05-1.05,1.05-1.05,1.05,1.05-1.05,1.05ZM883.14,608.18c-.55.54-1.1.82-1.66.82-.56,0-1.09-.24-1.59-.74l-2.54-2.54c-.5-.5-.75-1.03-.74-1.6,0-.56.28-1.12.83-1.66.55-.55,1.1-.82,1.66-.83.56,0,1.09.24,1.6.74l2.54,2.54c.5.5.75,1.03.74,1.6,0,.56-.28,1.12-.83,1.66ZM888.5,602.82c-.54.55-1.1.82-1.66.82-.56,0-1.09-.24-1.59-.74l-2.54-2.54c-.5-.5-.75-1.03-.74-1.6,0-.56.28-1.12.83-1.66s1.1-.82,1.66-.83c.56,0,1.09.24,1.6.74l2.54,2.54c.5.5.75,1.03.74,1.6,0,.56-.28,1.12-.83,1.66ZM893.87,597.45c-.55.55-1.1.82-1.66.82-.56,0-1.09-.24-1.59-.74l-2.54-2.54c-.5-.5-.75-1.03-.74-1.6,0-.56.28-1.12.83-1.66.54-.54,1.1-.82,1.66-.83.56,0,1.09.24,1.6.74l2.54,2.54c.5.5.75,1.03.74,1.6,0,.56-.28,1.12-.83,1.66ZM898.1,593.1l-4.35-4.35-.42.94-1.12-1.12.46-1.21.9-.9,5.58,5.58-1.05,1.05ZM903.96,586.98c-.14.4-.39.77-.74,1.12-.35.35-.73.6-1.12.74-.4.14-.78.17-1.16.08-.38-.09-.73-.29-1.03-.6l-.09-.09c-.28-.28-.46-.62-.56-1.02-.09-.4-.07-.79.06-1.17-.33.11-.66.14-.99.07-.33-.07-.61-.21-.84-.44l-.15-.15c-.29-.29-.48-.62-.56-.97-.08-.36-.06-.72.07-1.09.13-.37.36-.72.69-1.05.33-.33.68-.56,1.05-.69.37-.13.74-.15,1.09-.07.36.08.68.27.97.56l.15.15c.23.23.38.51.44.85.06.33.04.66-.08.99.39-.13.78-.15,1.18-.06.4.09.74.27,1.02.55l.09.09c.31.31.51.65.6,1.03.09.38.06.77-.08,1.16ZM909.23,581.98l-.86-.86-2.25,2.25-.97-.97-2.03-5.47,1.19-1.19,2.03,5.38,1.02-1.02-1.41-1.41,1.05-1.05,1.41,1.41.44-.44,1.01,1.01-.44.44.86.86-1.05,1.05ZM914.96,575.96c-.11.38-.34.74-.69,1.08-.34.34-.7.57-1.08.68-.38.11-.75.11-1.13-.02-.38-.12-.75-.36-1.1-.72h0c-.2-.21-.39-.44-.57-.72-.17-.27-.33-.57-.47-.89-.02-.05-.05-.11-.07-.16-.02-.05-.04-.11-.06-.16l-1.27-3.54,1.19-1.19,1.18,3.39c.05-.08.11-.15.18-.23.31-.31.63-.5.98-.59.35-.09.7-.06,1.07.07.36.14.72.38,1.07.73h0c.36.36.6.73.73,1.12.13.38.14.76.03,1.14ZM920.3,570.62c-.11.38-.34.74-.69,1.09-.3.3-.64.5-1.01.61-.37.11-.75.11-1.15,0-.4-.11-.78-.32-1.15-.64h0s1.05-1.06,1.05-1.06h0c.23.19.45.28.67.29.22,0,.41-.07.58-.24.18-.18.27-.39.25-.61-.02-.22-.14-.44-.36-.66l-.47-.47c-.22-.22-.43-.34-.64-.37-.21-.03-.4.04-.56.2-.15.15-.24.32-.27.5-.03.18,0,.36.1.54l-.98.98-3.21-3.21,3-3,1.01,1.01-1.95,1.95.99.99c0-.16.05-.32.14-.51.09-.18.21-.34.34-.48.29-.29.6-.47.94-.54.34-.07.69-.04,1.05.11.36.15.73.4,1.09.76l.47.47c.36.36.6.73.73,1.12.13.39.13.77.02,1.15ZM923.29,567.91l-.95-.95-.6-4.43c-.03-.2-.07-.38-.15-.55-.07-.17-.16-.3-.26-.4h0c-.15-.16-.32-.23-.5-.21-.18.02-.36.11-.54.29-.17.17-.26.37-.25.59,0,.22.1.45.29.68h0s-1.08,1.08-1.08,1.08h0c-.33-.37-.54-.76-.65-1.15-.11-.4-.1-.78.01-1.16.11-.38.33-.73.65-1.05.35-.35.7-.59,1.06-.72.36-.13.71-.16,1.06-.07.35.09.67.29.98.59h0c.25.26.46.55.62.89.16.34.26.69.31,1.05l.36,3.11,1.91-1.91,1.01,1.01-3.3,3.3ZM1004.59,539.36c-7.7,0-13.96-6.26-13.96-13.96s6.26-13.96,13.96-13.96,13.96,6.26,13.96,13.96-6.26,13.96-13.96,13.96Z"/>
        <path class="cls-1" d="M836.32,651.77l-.96.96c-.16.16-.25.31-.26.45-.02.14.04.28.17.4.13.13.28.18.44.14.16-.04.35-.16.55-.36.28-.28.46-.52.53-.72.07-.2.04-.37-.09-.5h0s-.37-.37-.37-.37Z"/>
        <path class="cls-1" d="M913.22,574.82c-.23-.23-.46-.36-.68-.38-.22-.02-.43.06-.62.25-.18.18-.26.39-.24.62.03.23.15.46.38.68h0c.2.2.4.31.61.31.21,0,.4-.08.59-.27.19-.19.28-.39.27-.59,0-.21-.11-.41-.31-.61h0Z"/>
      </g>
    </g>
    <g>
      <polygon class="cls-1" points="734.65 108.12 727.51 100.98 727.23 101.26 734.25 108.28 734.25 117.38 734.65 117.38 734.65 108.12"/>
      <polygon class="cls-1" points="744.45 119.75 744.45 101.13 730.12 86.8 729.28 87.64 743.27 101.62 743.27 119.75 744.45 119.75"/>
      <polygon class="cls-1" points="735.76 58.02 732.96 60.82 760.7 88.56 760.7 124.48 764.66 124.48 764.66 86.92 735.76 58.02"/>
      <polygon class="cls-1" points="279.08 48.27 273.3 54.05 273.3 62.79 273.7 62.79 273.7 54.22 279.36 48.55 279.08 48.27"/>
      <polygon class="cls-1" points="264.17 46.66 264.17 64.21 265.36 64.21 265.36 47.15 276.63 35.88 275.79 35.04 264.17 46.66"/>
      <polygon class="cls-1" points="249.29 33.27 271.6 10.96 268.8 8.15 245.33 31.62 245.33 67.05 249.29 67.05 249.29 33.27"/>
      <rect class="cls-1" x="725.66" y="46.44" width="1.19" height="9.74" transform="translate(176.44 528.58) rotate(-45)"/>
      <rect class="cls-1" x="273.63" y="2.19" width="6.69" height="1.19" transform="translate(79.15 196.66) rotate(-45)"/>
      <rect class="cls-1" x="246.71" y="74.28" width="1.19" height="79.91"/>
      <path class="cls-1" d="M678.37,144.48c6.45,0,11.7-5.25,11.7-11.7s-5.25-11.7-11.7-11.7-11.7,5.25-11.7,11.7,5.25,11.7,11.7,11.7Z"/>
      <path class="cls-1" d="M567.72,141.02h44.56l15.15,15.15h26.64l-93.75-93.75h-97.74l-38.15-.24-11.56,11.56h-118.04v82.44h257.73l15.15-15.15ZM476.47,101.66h92.99l7.77,7.77v9.91h-100.76v-17.68ZM474.1,119.33h-98.8v-17.68h98.8v17.68ZM372.92,119.33h-51.1v-17.68h51.1v17.68ZM319.45,101.66v17.68h-23.42v-17.68h23.42ZM314.22,146.46h-9.69v-9.69h9.69v9.69Z"/>
      <polygon class="cls-1" points="305.49 165.81 302.51 162.82 299.01 162.82 299.01 163.22 302.34 163.22 305.1 165.97 305.1 171.91 305.49 171.91 305.49 165.81"/>
      <rect class="cls-1" x="308.15" y="166.05" width="1.19" height="5.87"/>
      <polygon class="cls-1" points="335.09 165.81 332.1 162.82 328.61 162.82 328.61 163.22 331.94 163.22 334.69 165.97 334.69 171.91 335.09 171.91 335.09 165.81"/>
      <rect class="cls-1" x="337.74" y="166.05" width="1.19" height="5.87"/>
      <polygon class="cls-1" points="364.68 165.81 361.69 162.82 358.2 162.82 358.2 163.22 361.53 163.22 364.28 165.97 364.28 171.91 364.68 171.91 364.68 165.81"/>
      <rect class="cls-1" x="367.34" y="166.05" width="1.19" height="5.87"/>
      <polygon class="cls-1" points="394.27 165.81 391.29 162.82 387.8 162.82 387.8 163.22 391.12 163.22 393.88 165.97 393.88 171.91 394.27 171.91 394.27 165.81"/>
      <rect class="cls-1" x="396.93" y="166.05" width="1.19" height="5.87"/>
      <polygon class="cls-1" points="423.87 165.81 420.88 162.82 417.39 162.82 417.39 163.22 420.72 163.22 423.47 165.97 423.47 171.91 423.87 171.91 423.87 165.81"/>
      <rect class="cls-1" x="426.52" y="166.05" width="1.19" height="5.87"/>
      <polygon class="cls-1" points="453.46 165.81 450.48 162.82 446.98 162.82 446.98 163.22 450.31 163.22 453.07 165.97 453.07 171.91 453.46 171.91 453.46 165.81"/>
      <rect class="cls-1" x="456.12" y="166.05" width="1.19" height="5.87"/>
      <polygon class="cls-1" points="483.06 165.81 480.07 162.82 476.58 162.82 476.58 163.22 479.91 163.22 482.66 165.97 482.66 171.91 483.06 171.91 483.06 165.81"/>
      <rect class="cls-1" x="485.71" y="166.05" width="1.19" height="5.87"/>
      <polygon class="cls-1" points="512.65 165.81 509.66 162.82 506.17 162.82 506.17 163.22 509.5 163.22 512.25 165.97 512.25 171.91 512.65 171.91 512.65 165.81"/>
      <rect class="cls-1" x="515.31" y="166.05" width="1.19" height="5.87"/>
      <polygon class="cls-1" points="542.24 165.81 539.26 162.82 535.77 162.82 535.77 163.22 539.1 163.22 541.85 165.97 541.85 171.91 542.24 171.91 542.24 165.81"/>
      <rect class="cls-1" x="544.9" y="166.05" width="1.19" height="5.87"/>
      <polygon class="cls-1" points="571.84 165.81 568.85 162.82 565.36 162.82 565.36 163.22 568.69 163.22 571.44 165.97 571.44 171.91 571.84 171.91 571.84 165.81"/>
      <rect class="cls-1" x="574.49" y="166.05" width="1.19" height="5.87"/>
      <polygon class="cls-1" points="601.43 165.81 598.45 162.82 594.95 162.82 594.95 163.22 598.28 163.22 601.04 165.97 601.04 171.91 601.43 171.91 601.43 165.81"/>
      <rect class="cls-1" x="604.09" y="166.05" width="1.19" height="5.87"/>
      <polygon class="cls-1" points="631.03 165.81 628.04 162.82 624.55 162.82 624.55 163.22 627.88 163.22 630.63 165.97 630.63 171.91 631.03 171.91 631.03 165.81"/>
      <rect class="cls-1" x="633.68" y="166.05" width="1.19" height="5.87"/>
      <polygon class="cls-1" points="660.62 171.91 660.62 165.81 657.63 162.82 654.14 162.82 654.14 163.22 657.47 163.22 660.22 165.97 660.22 171.91 660.62 171.91"/>
      <rect class="cls-1" x="663.28" y="166.05" width="1.19" height="5.87"/>
      <polygon class="cls-1" points="690.21 171.91 690.21 165.81 687.23 162.82 683.74 162.82 683.74 163.22 687.07 163.22 689.82 165.97 689.82 171.91 690.21 171.91"/>
      <rect class="cls-1" x="692.87" y="166.05" width="1.19" height="5.87"/>
      <rect class="cls-1" x="504.27" y="50.75" width="9.11" height=".21"/>
      <rect class="cls-1" x="372.69" y="25.67" width="9.11" height="1.19"/>
      <rect class="cls-1" x="372.69" y="20.13" width="9.11" height="1.19"/>
      <rect class="cls-1" x="372.69" y="14.59" width="9.11" height="1.19"/>
      <rect class="cls-1" x="290.56" y="146.93" width="1.45" height="1.45"/>
      <rect class="cls-1" x="290.56" y="128.02" width="1.45" height="1.45"/>
      <rect class="cls-1" x="290.56" y="123.3" width="1.45" height="1.45"/>
      <rect class="cls-1" x="290.56" y="118.57" width="1.45" height="1.45"/>
      <rect class="cls-1" x="290.56" y="113.84" width="1.45" height="1.45"/>
      <rect class="cls-1" x="290.56" y="85.48" width="1.45" height="1.45"/>
      <rect class="cls-1" x="290.56" y="76.02" width="1.45" height="1.45"/>
      <rect class="cls-1" x="300.37" y="115.29" width=".2" height="4"/>
      <rect class="cls-1" x="308.14" y="115.29" width=".2" height="4"/>
      <rect class="cls-1" x="315.91" y="115.29" width=".2" height="4"/>
      <rect class="cls-1" x="323.68" y="115.29" width=".2" height="4"/>
      <rect class="cls-1" x="331.45" y="115.29" width=".2" height="4"/>
      <rect class="cls-1" x="339.22" y="115.29" width=".2" height="4"/>
      <rect class="cls-1" x="346.99" y="115.29" width=".2" height="4"/>
      <rect class="cls-1" x="354.76" y="115.29" width=".2" height="4"/>
      <rect class="cls-1" x="362.53" y="115.29" width=".2" height="4"/>
      <rect class="cls-1" x="370.3" y="115.29" width=".2" height="4"/>
      <rect class="cls-1" x="378.07" y="115.29" width=".2" height="4"/>
      <rect class="cls-1" x="385.84" y="115.29" width=".2" height="4"/>
      <rect class="cls-1" x="393.61" y="115.29" width=".2" height="4"/>
      <rect class="cls-1" x="401.38" y="115.29" width=".2" height="4"/>
      <rect class="cls-1" x="409.15" y="115.29" width=".2" height="4"/>
      <rect class="cls-1" x="416.92" y="115.29" width=".2" height="4"/>
      <rect class="cls-1" x="424.69" y="115.29" width=".2" height="4"/>
      <rect class="cls-1" x="432.45" y="115.29" width=".2" height="4"/>
      <rect class="cls-1" x="440.22" y="115.29" width=".2" height="4"/>
      <rect class="cls-1" x="447.99" y="115.29" width=".2" height="4"/>
      <rect class="cls-1" x="455.76" y="115.29" width=".2" height="4"/>
      <rect class="cls-1" x="463.53" y="115.29" width=".2" height="4"/>
      <rect class="cls-1" x="471.3" y="115.29" width=".2" height="4"/>
      <rect class="cls-1" x="479.07" y="115.29" width=".2" height="4"/>
      <rect class="cls-1" x="486.84" y="115.29" width=".2" height="4"/>
      <rect class="cls-1" x="494.61" y="115.29" width=".2" height="4"/>
      <rect class="cls-1" x="502.38" y="115.29" width=".2" height="4"/>
      <rect class="cls-1" x="510.15" y="115.29" width=".2" height="4"/>
      <rect class="cls-1" x="517.92" y="115.29" width=".2" height="4"/>
      <rect class="cls-1" x="525.69" y="115.29" width=".2" height="4"/>
      <rect class="cls-1" x="533.46" y="115.29" width=".2" height="4"/>
      <rect class="cls-1" x="541.23" y="115.29" width=".2" height="4"/>
      <rect class="cls-1" x="549" y="115.29" width=".2" height="4"/>
      <rect class="cls-1" x="556.77" y="115.29" width=".2" height="4"/>
      <rect class="cls-1" x="564.53" y="115.29" width=".2" height="4"/>
      <rect class="cls-1" x="572.3" y="115.29" width=".2" height="4"/>
      <rect class="cls-1" x="424.88" y="31.87" width="1.83" height="1.83" transform="translate(101.54 310.7) rotate(-45)"/>
      <path class="cls-1" d="M326.61,58.08h80.88l25.59-25.59-25.75-25.75-.34.34h-34.07l-16,16h-17.21l-35,35h21.9ZM307.72,57.08l33-33h16.7l.36-.36,15.64-15.64h33.66l24.41,24.41-24.59,24.59h-80.31v-7.78l18.08-18.22h27.92v1h9v-1.13.13h-37l-18,18.2v7.8h-18.87Z"/>
      <path class="cls-1" d="M569.38,62.42l93.75,93.75h44.09v-36.74l-57.01-57.01h-80.84ZM678.37,117.11c8.64,0,15.66,7.03,15.66,15.66s-7.03,15.66-15.66,15.66-15.66-7.03-15.66-15.66,7.03-15.66,15.66-15.66ZM659.69,80.62v10.06l-15.63,15.63v21.92l3.49,3.49.42-.42,6.46,6.46-1.4,1.4-6.46-6.46.42-.42-3.72-3.72v-22.57l15.63-15.63v-9.4l-4.16-4.16-.42.42-8.12-8.12,1.4-1.4,8.12,8.12-.42.42,4.4,4.4Z"/>
      <rect class="cls-1" x="635.59" y="54.63" width="1.19" height="3.12"/>
      <rect class="cls-1" x="627.62" y="54.63" width="1.19" height="3.12"/>
      <rect class="cls-1" x="619.66" y="54.63" width="1.19" height="3.12"/>
      <rect class="cls-1" x="611.69" y="54.63" width="1.19" height="3.12"/>
      <rect class="cls-1" x="603.73" y="54.63" width="1.19" height="3.12"/>
      <rect class="cls-1" x="595.76" y="54.63" width="1.19" height="3.12"/>
      <rect class="cls-1" x="587.79" y="54.63" width="1.19" height="3.12"/>
      <rect class="cls-1" x="579.83" y="54.63" width="1.19" height="3.12"/>
      <rect class="cls-1" x="571.86" y="54.63" width="1.19" height="3.12"/>
      <rect class="cls-1" x="563.9" y="54.63" width="1.19" height="3.12"/>
      <rect class="cls-1" x="555.93" y="54.63" width="1.19" height="3.12"/>
      <rect class="cls-1" x="547.97" y="54.63" width="1.19" height="3.12"/>
      <rect class="cls-1" x="540" y="54.63" width="1.19" height="3.12"/>
      <rect class="cls-1" x="532.04" y="54.63" width="1.19" height="3.12"/>
      <rect class="cls-1" x="524.07" y="54.63" width="1.19" height="3.12"/>
      <rect class="cls-1" x="516.11" y="54.63" width="1.19" height="3.12"/>
      <rect class="cls-1" x="508.14" y="54.63" width="1.19" height="3.12"/>
      <rect class="cls-1" x="500.18" y="54.63" width="1.19" height="3.12"/>
      <rect class="cls-1" x="492.21" y="54.63" width="1.19" height="3.12"/>
      <rect class="cls-1" x="484.25" y="54.63" width="1.19" height="3.12"/>
      <rect class="cls-1" x="476.28" y="54.63" width="1.19" height="3.12"/>
      <rect class="cls-1" x="468.32" y="54.63" width="1.19" height="3.12"/>
    </g>
    <polygon class="cls-1" points="242.02 214.67 242.02 244.09 230.45 255.66 230.45 303.07 239.93 312.55 239.93 491.5 251.24 502.81 251.24 518.31 274.65 518.49 274.65 505.9 249.53 480.77 249.53 148.38 242.88 155.03 242.02 244.09 242.02 214.67"/>
    <path class="cls-1" d="M363.13,671.97h69.34v-15.44l-28.19-28.19h-23.07l-85.22-85.22v-15.9l-27.5-27.5-7.95,7.95-14.17,14.17v33.37l15.64,15.64h19.33l22.71,22.71v19.33l59.08,59.08ZM402.18,658.92h-24.71l-15.74-15.74h-12.95l-31.68-31.68v-15.54l6.77-6.77h7.77l50.61,50.61h20.52l5.78,5.78v6.97l-6.38,6.38Z"/>
    <polygon class="cls-1" points="432.47 671.97 593.07 671.97 604.42 684.58 672.35 684.58 691.07 666.46 519.67 666.46 508.11 654.9 423.16 654.9 432.47 671.97"/>
    <polygon class="cls-1" points="238.11 211.46 238.11 181.3 226.55 181.3 226.55 478.75 248.2 478.75 248.2 221.55 238.11 211.46"/>
    <polygon class="cls-1" points="200.31 505.78 193.29 498.76 193.01 499.04 200.15 506.18 209.41 506.18 209.41 505.78 200.31 505.78"/>
    <polygon class="cls-1" points="211.78 515.98 211.78 514.79 193.65 514.79 179.67 500.81 178.83 501.65 193.16 515.98 211.78 515.98"/>
    <polygon class="cls-1" points="180.59 532.22 152.85 504.49 150.05 507.29 178.95 536.19 216.51 536.19 216.51 532.22 180.59 532.22"/>
    <polygon class="cls-1" points="150.61 69.25 159.5 60.35 172.97 60.35 172.97 59.73 159.25 59.73 150.17 68.81 150.61 69.25"/>
    <polygon class="cls-1" points="175.2 45.39 147.63 45.39 129.37 63.65 130.69 64.97 148.4 47.26 175.2 47.26 175.2 45.39"/>
    <polygon class="cls-1" points="245.33 40.21 245.33 33.99 142.89 33.99 106.02 70.87 110.42 75.27 145.47 40.21 245.33 40.21"/>
    <line class="cls-4" x1="108.52" y1="70.92" x2="108.52" y2="142.08"/>
    <rect class="cls-1" x="224.81" y="533.61" width="7.24" height="1.19"/>
    <rect class="cls-1" x="191.02" y="17.96" width="10.04" height="1.87"/>
    <path class="cls-1" d="M230.07,96.58c0-6.45-5.25-11.7-11.7-11.7s-11.7,5.25-11.7,11.7,5.25,11.7,11.7,11.7,11.7-5.25,11.7-11.7Z"/>
    <path class="cls-1" d="M115.11,128.67l-18.51,18.51,21.32,21.32h120.19v-28.36h10.09v-73.77h-88.08l-20.91,20.91,63.26,63.26-31.97-31.97-24.73-24.73-6.56-6.56-7.8,7.8-16.3,16.3v17.29ZM202.7,96.58c0-8.64,7.03-15.66,15.66-15.66s15.66,7.03,15.66,15.66-7.03,15.66-15.66,15.66-15.66-7.03-15.66-15.66ZM200.8,150.54l-1.71,1.71h-8.82l-25.88-25.88,6.12-6.12,30.29,30.29ZM168.82,118.57l-6.12,6.12-23.05-23.05,6.12-6.12,23.05,23.05ZM139.21,88.96l4.88,4.88-6.12,6.12-4.88-4.88,6.12-6.12Z"/>
    <path class="cls-1" d="M209.5,188.82c-.1-.12-.24-.18-.43-.18s-.34.08-.44.23c-.1.15-.14.38-.14.68,0,.43.05.74.15.95.1.21.25.31.45.31h.56v-1.45c0-.24-.05-.42-.14-.54Z"/>
    <path class="cls-1" d="M208.79,205.53c-.07.13-.11.3-.11.48,0,.3.1.53.3.69s.48.25.84.25h.96c.37,0,.65-.08.86-.25.2-.16.3-.4.3-.69,0-.19-.04-.35-.11-.48-.08-.13-.18-.23-.33-.3-.14-.07-.32-.1-.52-.1h-1.35c-.2,0-.37.03-.5.1-.14.07-.25.17-.32.3Z"/>
    <path class="cls-1" d="M208.79,218.02c-.07.13-.11.3-.11.48,0,.3.1.53.3.69.2.16.48.25.84.25h.96c.37,0,.65-.08.86-.25.2-.16.3-.4.3-.69,0-.19-.04-.35-.11-.48-.08-.13-.18-.23-.33-.3-.14-.07-.32-.1-.52-.1h-1.35c-.2,0-.37.03-.5.1-.14.07-.25.17-.32.3Z"/>
    <path class="cls-1" d="M208.74,289.2c0,.28.08.5.25.65s.4.23.7.23h0c.35,0,.62-.08.8-.23s.28-.37.28-.65-.1-.49-.29-.65c-.19-.15-.46-.23-.8-.23h0c-.3,0-.53.08-.7.23-.16.15-.24.37-.24.65Z"/>
    <path class="cls-1" d="M212.48,296.9c-.08.14-.12.3-.12.48s.04.34.12.48.19.24.34.32c.15.08.31.11.5.11h.08c.18,0,.33-.04.47-.11.13-.08.24-.18.31-.32s.11-.3.11-.48-.04-.34-.11-.48c-.07-.14-.18-.24-.31-.32-.14-.08-.29-.11-.47-.11h-.09c-.19,0-.35.04-.49.11-.14.08-.25.18-.33.32Z"/>
    <path class="cls-1" d="M208.74,305.55c0,.28.08.5.25.65s.4.23.7.23h0c.35,0,.62-.08.8-.23s.28-.37.28-.65-.1-.49-.29-.65c-.19-.15-.46-.23-.8-.23h0c-.3,0-.53.08-.7.23-.16.15-.24.37-.24.65Z"/>
    <path class="cls-1" d="M208.87,296.81c-.09.16-.13.35-.13.57s.04.4.13.57c.09.16.21.29.37.38s.34.14.55.14h.08c.19,0,.36-.05.5-.14s.25-.22.33-.38c.08-.16.12-.35.12-.57s-.04-.41-.12-.57c-.08-.16-.19-.29-.34-.38-.15-.09-.31-.14-.5-.14h-.09c-.21,0-.39.05-.54.14-.16.09-.28.22-.36.38Z"/>
    <path class="cls-1" d="M208.74,275.36c0,.32.11.56.33.71.22.15.53.23.94.23h3.02c.41,0,.72-.08.94-.23.22-.15.33-.39.33-.71s-.11-.56-.33-.71c-.22-.15-.53-.23-.94-.23h-3.02c-.41,0-.72.08-.94.23-.22.15-.33.39-.33.71Z"/>
    <path class="cls-1" d="M208.68,233.36c0,.19.04.35.11.48.07.13.18.24.32.3.14.07.31.1.5.1h1.35c.21,0,.38-.03.52-.1.14-.07.25-.17.33-.3.08-.13.11-.29.11-.48,0-.3-.1-.53-.3-.69-.2-.16-.49-.25-.86-.25h-.96c-.36,0-.64.08-.84.25s-.3.4-.3.69Z"/>
    <path class="cls-1" d="M208.74,267.25c0,.32.11.56.33.71.22.15.53.23.94.23h3.02c.41,0,.72-.08.94-.23.22-.15.33-.39.33-.71s-.11-.56-.33-.71c-.22-.15-.53-.23-.94-.23h-3.02c-.41,0-.72.08-.94.23-.22.15-.33.39-.33.71Z"/>
    <path class="cls-1" d="M208.74,259.14c0,.32.11.56.33.71.22.15.53.23.94.23h3.02c.41,0,.72-.08.94-.23.22-.15.33-.39.33-.71s-.11-.56-.33-.71c-.22-.15-.53-.23-.94-.23h-3.02c-.41,0-.72.08-.94.23-.22.15-.33.39-.33.71Z"/>
    <rect class="cls-1" x="173.87" y="288.5" width=".4" height="56.32"/>
    <rect class="cls-1" x="168.91" y="288.5" width=".4" height="56.32"/>
    <rect class="cls-1" x="163.94" y="288.5" width=".4" height="56.32"/>
    <rect class="cls-1" x="158.97" y="288.5" width=".4" height="56.32"/>
    <rect class="cls-1" x="154.01" y="288.5" width=".4" height="56.32"/>
    <path class="cls-1" d="M142.84,181.3v86.65h-27.92l-51.84-51.84v-35.5H0v54.26l22.21,22.21h33.4l9.24,9.24v56.5l68.46,68.46v9.32l14.84,14.84,32.83,32.83,30.49,30.49h8.69V181.3h-77.3ZM62.13,181.66l-4.6,4.6v-4.6h4.6ZM6.47,187.08v-5.43h17.55v5.43H6.47ZM27.8,187.08v-5.43h12.37v5.43h-12.37ZM42.24,187.08v-5.43h8.42v5.43h-8.42ZM51.66,187.08v-5.43h5.46v5.01l-.42.42h-5.04ZM30.7,215.63v-1.19h14.93v1.19h-14.93ZM30.7,221.24v-2.38h14.93v2.38h-14.93ZM30.7,231.72v-3.96h14.93v3.96h-14.93ZM30.7,251.08v-7.92h14.93v7.92h-14.93ZM148.14,206.04h32.83s-21.88,0-21.88,0h-10.94ZM179.78,354.33v44.93h-30.45v-44.93h30.45ZM174.66,353.14v-6.04h-1.19v6.04h-3.78v-6.04h-1.19v6.04h-3.78v-6.04h-1.19v6.04h-3.78v-6.04h-1.19v6.04h-3.78v-6.04h-1.19v6.04h-4.28v-145.91h1.31v1.67l7.32,7.32v4.89h1.19v-4.65h1.61v4.65h1.19v-4.65h1.61v4.65h1.19v-4.65h1.61v4.65h1.19v-4.65h1.61v4.65h1.19v-4.89l7.32-7.32v-1.67h2.14v145.91h-5.11ZM159.08,207.23h18.16v1.51l-5.17,5.17h-15.87l-5.17-5.17v-1.51h8.05ZM81.84,317l-2.84-2.84v-4.01l2.84-2.84h4.01l2.84,2.84v4.01l-2.84,2.84h-4.01ZM149.33,414.94v-14.49h30.45v44.94l-30.45-30.45ZM209.7,303.06v1.59h0c-.31.03-.55.13-.72.28-.17.16-.26.37-.26.62,0,.28.09.49.27.65s.44.23.77.23h.71c.33,0,.59-.07.77-.21.18-.14.27-.33.27-.58,0-.23-.06-.42-.17-.58s-.28-.27-.49-.33v-1.49h4.85v4.53h-1.53v-2.94h-1.49c.12.12.21.28.28.49.07.21.1.41.1.62,0,.44-.1.81-.3,1.12s-.5.55-.88.71c-.39.16-.85.24-1.4.24h-.71c-.55,0-1.01-.1-1.4-.29-.39-.2-.68-.48-.88-.85-.2-.37-.3-.82-.3-1.35,0-.45.1-.86.3-1.22.2-.36.49-.65.87-.87.38-.22.83-.35,1.35-.38h0ZM209.72,295c.31,0,.63.04.97.11s.68.18,1.03.32c.06.02.12.05.17.07.06.03.11.05.17.08l3.63,1.71v1.8l-3.46-1.67c.02.1.03.2.03.31,0,.46-.1.86-.3,1.19-.2.33-.48.58-.86.75-.38.17-.83.26-1.36.26h0c-.54,0-1.01-.1-1.39-.29-.39-.19-.68-.47-.88-.84-.2-.37-.3-.82-.3-1.34s.1-.96.3-1.33c.2-.37.49-.65.87-.84.38-.19.84-.29,1.38-.29h0ZM209.76,286.73c.31,0,.63.04.97.11s.68.18,1.03.32c.06.02.12.05.17.07.06.03.11.05.17.08l3.63,1.71v1.8l-3.46-1.67c.02.1.03.2.03.31,0,.46-.1.86-.3,1.19-.2.33-.48.58-.86.75-.38.17-.83.26-1.36.26h0c-.54,0-1.01-.1-1.39-.29s-.68-.47-.88-.84c-.2-.37-.3-.82-.3-1.34s.1-.96.3-1.33c.2-.37.49-.65.87-.84.38-.19.84-.29,1.38-.29h0ZM215.16,280.82l.57,1.26v1.36h-8.44v-1.59h6.57l-.39-1.03h1.69ZM213.44,272.83c.76,0,1.35.22,1.77.65s.63,1.06.63,1.88-.21,1.45-.63,1.88c-.42.43-1.01.64-1.77.64h-3.84c-.76,0-1.35-.22-1.77-.65s-.63-1.06-.63-1.88.21-1.45.64-1.88c.42-.43,1.01-.64,1.76-.64h3.84ZM213.44,264.73c.76,0,1.35.22,1.77.65s.63,1.06.63,1.88-.21,1.45-.63,1.88c-.42.43-1.01.64-1.77.64h-3.84c-.76,0-1.35-.22-1.77-.65s-.63-1.06-.63-1.88.21-1.45.64-1.88c.42-.43,1.01-.64,1.76-.64h3.84ZM213.44,256.62c.76,0,1.35.22,1.77.65s.63,1.06.63,1.88-.21,1.45-.63,1.88c-.42.43-1.01.64-1.77.64h-3.84c-.76,0-1.35-.22-1.77-.65s-.63-1.06-.63-1.88.21-1.45.64-1.88c.42-.43,1.01-.64,1.76-.64h3.84ZM208.88,252.29v1.59h-1.59v-1.59h1.59Z"/>
    <polygon class="cls-1" points="169.53 223.02 169.53 238.33 173.87 242.67 173.87 282.71 174.27 282.71 174.27 242.51 169.92 238.17 169.92 223.02 169.53 223.02"/>
    <polygon class="cls-1" points="158.75 238.33 158.75 223.02 158.35 223.02 158.35 238.17 154.01 242.51 154.01 282.71 154.4 282.71 154.4 242.67 158.75 238.33"/>
    <rect class="cls-1" x="163.94" y="223.02" width=".4" height="59.69"/>
    <polygon class="cls-1" points="169.28 243.74 169.28 243.65 167.13 241.51 167.13 223.02 166.73 223.02 166.73 241.67 168.88 243.82 168.91 282.71 169.3 282.71 169.28 243.74"/>
    <polygon class="cls-1" points="161.54 241.67 161.54 223.02 161.14 223.02 161.14 241.51 159 243.65 158.97 282.71 159.37 282.71 159.39 243.82 161.54 241.67"/>
    <rect class="cls-1" x="173.48" y="283.87" width="1.19" height="3.23"/>
    <rect class="cls-1" x="168.51" y="283.87" width="1.19" height="3.23"/>
    <rect class="cls-1" x="163.54" y="283.87" width="1.19" height="3.23"/>
    <rect class="cls-1" x="158.58" y="283.87" width="1.19" height="3.23"/>
    <rect class="cls-1" x="153.61" y="283.87" width="1.19" height="3.23"/>
    <rect class="cls-1" x="182.28" y="62.09" width="1.45" height="1.45"/>
    <rect class="cls-1" x="190.09" y="62.09" width="1.45" height="1.45"/>
    <rect class="cls-1" x="213.52" y="62.09" width="1.45" height="1.45"/>
    <rect class="cls-1" x="221.33" y="62.09" width="1.45" height="1.45"/>
    <rect class="cls-1" x="225.23" y="62.09" width="1.45" height="1.45"/>
  </g>
</svg>