<?xml version="1.0" encoding="UTF-8"?>
<svg id="Layer_2" data-name="Layer 2" xmlns="http://www.w3.org/2000/svg" viewBox="0 0 1960.98 697.51">
  <defs>
    <style>
      .cls-1 {
        fill: #000;
      }

      .cls-1, .cls-2 {
        stroke-width: 0px;
      }

      .cls-3 {
        stroke: #000;
        stroke-miterlimit: 10;
      }

      .cls-3, .cls-2 {
        fill: #fff;
      }
    </style>
  </defs>
  <g id="Arrows">
    <g>
      <polyline class="cls-3" points="1785.07 224.19 1804.18 218.35 1812.65 218.35 1858.26 267.54 1884.86 267.54 1898.5 285.46 1890.12 297.04 1846.42 299.42 1788.74 241.75"/>
      <polyline class="cls-3" points="1712.05 657.86 1726.43 669.81 1821.01 575.23 1864.6 561.21 1900.82 544.74 1900.82 520.02 1873.58 520.02 1852.99 540.61 1865.07 552.7 1816.73 567.68 1806.43 564.95"/>
      <polyline class="cls-3" points="10.06 178.45 10.06 165.06 24.86 150.25 45.14 150.25 63.31 132.08 63.31 110.55 67.6 106.26 125.5 106.26 162.46 69.29 249.6 69.29 249.6 77.74 555.79 77.74 562.03 64.69 651.92 64.69 666.52 50.09 724.71 50.09 738.63 64.01 764.4 89.78 764.4 137.72 1623.37 137.72 1643.99 158.34 1643.99 189.22 1692.39 237.62 1762.99 308.21 1805.88 308.21 1847.59 349.93 1877.49 379.82 1960.48 379.82 1960.48 453.69 1859.79 453.69 1806.95 506.54 1771.22 506.54 1626.9 650.85 1596.4 681.36 653.18 681.36 606.69 681.36 597.15 671.82 364.53 671.82 309.65 616.94 309.65 581.86 265.66 537.87 184.98 537.87 141.69 499.18 141.69 413.61"/>
      <polygon class="cls-2" points="0 176.58 0 235.08 22.43 257.51 29.47 257.51 29.47 260.39 35.48 260.39 50.68 275.59 50.68 321.89 134.42 405.63 138.9 405.63 180.79 447.52 216.51 447.52 214.86 186.4 147.2 186.85 147.2 267.91 146.53 273.87 109.38 270.97 61.6 220.6 61.6 176.58 0 176.58"/>
      <g>
        <polygon class="cls-1" points="1119.96 675.35 1117.2 678.11 1113.87 678.11 1113.87 678.5 1117.37 678.5 1120.35 675.52 1120.35 669.41 1119.96 669.41 1119.96 675.35"/>
        <rect class="cls-1" x="1123.01" y="669.41" width="1.19" height="5.87"/>
        <polygon class="cls-1" points="1149.55 675.35 1146.8 678.11 1143.47 678.11 1143.47 678.5 1146.96 678.5 1149.95 675.52 1149.95 669.41 1149.55 669.41 1149.55 675.35"/>
        <rect class="cls-1" x="1152.6" y="669.41" width="1.19" height="5.87"/>
        <polygon class="cls-1" points="1179.14 675.35 1176.39 678.11 1173.06 678.11 1173.06 678.5 1176.55 678.5 1179.54 675.52 1179.54 669.41 1179.14 669.41 1179.14 675.35"/>
        <rect class="cls-1" x="1182.2" y="669.41" width="1.19" height="5.87"/>
        <polygon class="cls-1" points="1208.74 675.35 1205.98 678.11 1202.66 678.11 1202.66 678.5 1206.15 678.5 1209.13 675.52 1209.13 669.41 1208.74 669.41 1208.74 675.35"/>
        <rect class="cls-1" x="1211.79" y="669.41" width="1.19" height="5.87"/>
        <polygon class="cls-1" points="1238.33 675.35 1235.58 678.11 1232.25 678.11 1232.25 678.5 1235.74 678.5 1238.73 675.52 1238.73 669.41 1238.33 669.41 1238.33 675.35"/>
        <rect class="cls-1" x="1241.38" y="669.41" width="1.19" height="5.87"/>
        <polygon class="cls-1" points="1267.93 675.35 1265.17 678.11 1261.84 678.11 1261.84 678.5 1265.34 678.5 1268.32 675.52 1268.32 669.41 1267.93 669.41 1267.93 675.35"/>
        <rect class="cls-1" x="1270.98" y="669.41" width="1.19" height="5.87"/>
        <polygon class="cls-1" points="1297.52 675.35 1294.77 678.11 1291.44 678.11 1291.44 678.5 1294.93 678.5 1297.92 675.52 1297.92 669.41 1297.52 669.41 1297.52 675.35"/>
        <rect class="cls-1" x="1300.57" y="669.41" width="1.19" height="5.87"/>
        <polygon class="cls-1" points="1327.11 675.35 1324.36 678.11 1321.03 678.11 1321.03 678.5 1324.52 678.5 1327.51 675.52 1327.51 669.41 1327.11 669.41 1327.11 675.35"/>
        <rect class="cls-1" x="1330.17" y="669.41" width="1.19" height="5.87"/>
        <polygon class="cls-1" points="1356.71 675.35 1353.95 678.11 1350.63 678.11 1350.63 678.5 1354.12 678.5 1357.1 675.52 1357.1 669.41 1356.71 669.41 1356.71 675.35"/>
        <rect class="cls-1" x="1359.76" y="669.41" width="1.19" height="5.87"/>
        <polygon class="cls-1" points="1386.3 675.35 1383.55 678.11 1380.22 678.11 1380.22 678.5 1383.71 678.5 1386.7 675.52 1386.7 669.41 1386.3 669.41 1386.3 675.35"/>
        <rect class="cls-1" x="1389.35" y="669.41" width="1.19" height="5.87"/>
        <polygon class="cls-1" points="1415.9 675.35 1413.14 678.11 1409.81 678.11 1409.81 678.5 1413.31 678.5 1416.29 675.52 1416.29 669.41 1415.9 669.41 1415.9 675.35"/>
        <rect class="cls-1" x="1418.95" y="669.41" width="1.19" height="5.87"/>
        <polygon class="cls-1" points="1445.49 675.35 1442.74 678.11 1439.41 678.11 1439.41 678.5 1442.9 678.5 1445.89 675.52 1445.89 669.41 1445.49 669.41 1445.49 675.35"/>
        <rect class="cls-1" x="1448.54" y="669.41" width="1.19" height="5.87"/>
        <polygon class="cls-1" points="1469 678.5 1472.49 678.5 1475.48 675.52 1475.48 669.41 1475.08 669.41 1475.08 675.35 1472.33 678.11 1469 678.11 1469 678.5"/>
        <rect class="cls-1" x="1478.14" y="669.41" width="1.19" height="5.87"/>
        <polygon class="cls-1" points="1498.6 678.5 1502.09 678.5 1505.07 675.52 1505.07 669.41 1504.68 669.41 1504.68 675.35 1501.92 678.11 1498.6 678.11 1498.6 678.5"/>
        <rect class="cls-1" x="1507.73" y="669.41" width="1.19" height="5.87"/>
        <rect class="cls-1" x="1094.42" y="696.06" width="1.45" height="1.45"/>
        <polygon class="cls-1" points="702.07 676.68 699.32 679.43 695.99 679.43 695.99 679.82 699.48 679.82 702.47 676.84 702.47 670.73 702.07 670.73 702.07 676.68"/>
        <rect class="cls-1" x="705.12" y="670.73" width="1.19" height="5.87"/>
        <polygon class="cls-1" points="731.67 676.68 728.91 679.43 725.58 679.43 725.58 679.82 729.08 679.82 732.06 676.84 732.06 670.73 731.67 670.73 731.67 676.68"/>
        <rect class="cls-1" x="734.72" y="670.73" width="1.19" height="5.87"/>
        <polygon class="cls-1" points="761.26 676.68 758.51 679.43 755.18 679.43 755.18 679.82 758.67 679.82 761.66 676.84 761.66 670.73 761.26 670.73 761.26 676.68"/>
        <rect class="cls-1" x="764.31" y="670.73" width="1.19" height="5.87"/>
        <polygon class="cls-1" points="790.85 676.68 788.1 679.43 784.77 679.43 784.77 679.82 788.26 679.82 791.25 676.84 791.25 670.73 790.85 670.73 790.85 676.68"/>
        <rect class="cls-1" x="793.91" y="670.73" width="1.19" height="5.87"/>
        <polygon class="cls-1" points="820.45 676.68 817.69 679.43 814.37 679.43 814.37 679.82 817.86 679.82 820.84 676.84 820.84 670.73 820.45 670.73 820.45 676.68"/>
        <rect class="cls-1" x="823.5" y="670.73" width="1.19" height="5.87"/>
        <polygon class="cls-1" points="850.04 676.68 847.29 679.43 843.96 679.43 843.96 679.82 847.45 679.82 850.44 676.84 850.44 670.73 850.04 670.73 850.04 676.68"/>
        <rect class="cls-1" x="853.09" y="670.73" width="1.19" height="5.87"/>
        <polygon class="cls-1" points="879.64 676.68 876.88 679.43 873.55 679.43 873.55 679.82 877.05 679.82 880.03 676.84 880.03 670.73 879.64 670.73 879.64 676.68"/>
        <rect class="cls-1" x="882.69" y="670.73" width="1.19" height="5.87"/>
        <polygon class="cls-1" points="909.23 676.68 906.48 679.43 903.15 679.43 903.15 679.82 906.64 679.82 909.63 676.84 909.63 670.73 909.23 670.73 909.23 676.68"/>
        <rect class="cls-1" x="912.28" y="670.73" width="1.19" height="5.87"/>
        <polygon class="cls-1" points="938.82 676.68 936.07 679.43 932.74 679.43 932.74 679.82 936.24 679.82 939.22 676.84 939.22 670.73 938.82 670.73 938.82 676.68"/>
        <rect class="cls-1" x="941.88" y="670.73" width="1.19" height="5.87"/>
        <polygon class="cls-1" points="968.42 676.68 965.66 679.43 962.34 679.43 962.34 679.82 965.83 679.82 968.81 676.84 968.81 670.73 968.42 670.73 968.42 676.68"/>
        <rect class="cls-1" x="971.47" y="670.73" width="1.19" height="5.87"/>
        <polygon class="cls-1" points="998.01 676.68 995.26 679.43 991.93 679.43 991.93 679.82 995.42 679.82 998.41 676.84 998.41 670.73 998.01 670.73 998.01 676.68"/>
        <rect class="cls-1" x="1001.06" y="670.73" width="1.19" height="5.87"/>
        <polygon class="cls-1" points="1027.61 676.68 1024.85 679.43 1021.52 679.43 1021.52 679.82 1025.02 679.82 1028 676.84 1028 670.73 1027.61 670.73 1027.61 676.68"/>
        <rect class="cls-1" x="1030.66" y="670.73" width="1.19" height="5.87"/>
        <polygon class="cls-1" points="1051.12 679.82 1054.61 679.82 1057.6 676.84 1057.6 670.73 1057.2 670.73 1057.2 676.68 1054.45 679.43 1051.12 679.43 1051.12 679.82"/>
        <rect class="cls-1" x="1060.25" y="670.73" width="1.19" height="5.87"/>
        <polygon class="cls-1" points="1080.71 679.82 1084.21 679.82 1087.19 676.84 1087.19 670.73 1086.79 670.73 1086.79 676.68 1084.04 679.43 1080.71 679.43 1080.71 679.82"/>
        <rect class="cls-1" x="1089.85" y="670.73" width="1.19" height="5.87"/>
      </g>
      <g>
        <path class="cls-1" d="M1839.43,304.47h69.34v-15.44l-28.19-28.19h-23.07l-85.22-85.22v-15.9l-27.5-27.5-7.95,7.95-14.17,14.17v33.37l15.64,15.64h19.33l22.71,22.71v19.33l59.08,59.08ZM1878.48,291.42h-24.71l-15.74-15.74h-12.95l-31.68-31.68v-15.54l6.77-6.77h7.77l50.61,50.61h20.52l5.78,5.78v6.97l-6.38,6.38Z"/>
        <polygon class="cls-1" points="1660.74 236.89 1600.1 176.25 1600.1 137 1600.87 137 1622.84 137 1644.36 158.52 1644.36 180.5 1700.76 236.89 1660.74 236.89"/>
        <path class="cls-1" d="M1782.81,336.18c0-4.43,3.6-8.03,8.03-8.03s8.03,3.6,8.03,8.03-3.6,8.03-8.03,8.03-8.03-3.6-8.03-8.03Z"/>
        <path class="cls-1" d="M1563.75,161.35c0-4.43,3.6-8.03,8.03-8.03s8.03,3.6,8.03,8.03-3.6,8.03-8.03,8.03-8.03-3.6-8.03-8.03Z"/>
        <path class="cls-1" d="M1639.05,236.89h14.18l-58.44-57.82v-41.01h-32.85l-11.39,11.27-11.96,11.83,29.85,29.53h23.91l46.69,46.19ZM1571.78,174.69c-7.36,0-13.34-5.98-13.34-13.34s5.98-13.34,13.34-13.34,13.34,5.98,13.34,13.34-5.98,13.34-13.34,13.34Z"/>
        <polygon class="cls-1" points="1676.89 572.98 1634.91 572.98 1660.35 547.54 1684.26 547.54 1719.68 512.13 1719.68 451.15 1738.81 432.03 1759.79 432.03 1759.79 490.07 1676.89 572.98"/>
        <polygon class="cls-1" points="1712.05 475.84 1712.05 484.77 1621.65 575.17 1621.65 566.25 1712.05 475.84"/>
        <circle class="cls-1" cx="1883.21" cy="536.71" r="8.03" transform="translate(-72.94 626.18) rotate(-18.53)"/>
        <circle class="cls-1" cx="1647.65" cy="605" r="8.03"/>
        <rect class="cls-1" x="1739.4" y="149.66" width="10.76" height="10.76" transform="translate(3088.17 -969.07) rotate(135)"/>
        <g>
          <polygon class="cls-1" points="1592.57 469.35 1587.25 469.35 1587.25 515.54 1572.63 530.16 1576.39 533.92 1592.57 517.74 1592.57 469.35"/>
          <polygon class="cls-1" points="1576.39 295.73 1572.63 299.49 1587.25 314.11 1587.25 360.3 1592.57 360.3 1592.57 311.91 1576.39 295.73"/>
        </g>
        <polygon class="cls-1" points="1921.5 578.55 1904.39 595.65 1871.75 595.65 1871.75 600.97 1906.6 600.97 1925.25 582.31 1921.5 578.55"/>
        <polygon class="cls-1" points="1906.6 228.68 1871.75 228.68 1871.75 234 1904.39 234 1921.5 251.1 1925.25 247.34 1906.6 228.68"/>
        <path class="cls-1" d="M1770.42,504.21h39.97l6.26-6.26,2.13-2.13,7.19-7.19,3.19-3.19,6.12-6.12,4.25-4.25,5.3-5.3,5.31-5.31h0s97.13,0,97.13,0l11.51-11.51v-20.92h-188.36v72.18ZM1781.18,453.55v-10.76h10.76v10.76h-10.76ZM1823.75,469.77l5.31-5.31h17.36l-5.31,5.31h-17.36ZM1814.19,479.32l4.25-4.25h17.36l-4.25,4.25h-17.36ZM1804.88,488.63l3.19-3.19h17.36l-3.19,3.19h-17.36ZM1795.57,497.95l2.13-2.13h17.36l-2.13,2.13h-17.36Z"/>
        <path class="cls-1" d="M1565.52,696.23h46.71l23.3-23.3v-14.95l124.27-124.27v-29.51h-6.62l-74.09,74.09h-49.49l-7.95,7.95v43.93l-30.04,30.04h-20.03s-2.21-2.21-2.21-2.21h0l-.48-.48-21.03,21.03.47.47h0l3.94,3.94h0s13.26,13.26,13.26,13.26ZM1647.65,618.34c-7.36,0-13.34-5.98-13.34-13.34s5.98-13.34,13.34-13.34,13.34,5.98,13.34,13.34-5.98,13.34-13.34,13.34ZM1560.56,671.24l-7.37,7.37-2.21-2.21,7.37-7.37,2.21,2.21ZM1559.91,667.46l4.69-4.69,2.21,2.21-4.69,4.69-2.21-2.21ZM1571.08,660.72l-3.33,3.33-2.21-2.21,3.33-3.33,2.21,2.21Z"/>
        <path class="cls-1" d="M1778.26,397.62h39.75l10.76-10.76h47.97l10.76,10.76h71.28v-21.52l-22.12-22.11h-86.3l-48.19-48.19h-32.5l-58.28-58.28h-61.71l78.67,78.67v21.52l49.91,49.91ZM1790.84,349.52c-7.36,0-13.34-5.98-13.34-13.34s5.98-13.34,13.34-13.34,13.34,5.98,13.34,13.34-5.98,13.34-13.34,13.34ZM1947.9,390v-7.17h5.31v7.17h-5.31ZM1931.43,390v-7.17h4.07v7.17h-4.07ZM1919.54,390v-7.17h2.83v7.17h-2.83ZM1910.4,382.83h1.59v7.17h-1.59v-7.17Z"/>
        <g>
          <path class="cls-1" d="M1947.44,425.25v2.67s.04.08.08.08h.77s.08-.04.08-.08v-2.67s-.04-.08-.08-.08h-.77s-.08.04-.08.08ZM1947.33,424.72h1.15c.19,0,.33.14.33.3v3.11c0,.16-.14.3-.33.3h-1.15c-.19,0-.33-.14-.33-.3v-3.11c0-.16.14-.3.33-.3Z"/>
          <path class="cls-1" d="M1919,425.25v2.67s.04.08.08.08h.77s.08-.04.08-.08v-2.67s-.04-.08-.08-.08h-.77s-.08.04-.08.08ZM1918.89,424.72h1.15c.19,0,.33.14.33.3v3.11c0,.16-.14.3-.33.3h-1.15c-.19,0-.33-.14-.33-.3v-3.11c0-.16.14-.3.33-.3Z"/>
          <path class="cls-1" d="M1890.56,425.25v2.67s.04.08.08.08h.77s.08-.04.08-.08v-2.67s-.04-.08-.08-.08h-.77s-.08.04-.08.08ZM1890.45,424.72h1.15c.19,0,.33.14.33.3v3.11c0,.16-.14.3-.33.3h-1.15c-.19,0-.33-.14-.33-.3v-3.11c0-.16.14-.3.33-.3Z"/>
          <path class="cls-1" d="M1862.12,425.25v2.67s.04.08.08.08h.77s.08-.04.08-.08v-2.67s-.04-.08-.08-.08h-.77s-.08.04-.08.08ZM1862.01,424.72h1.15c.19,0,.33.14.33.3v3.11c0,.16-.14.3-.33.3h-1.15c-.19,0-.33-.14-.33-.3v-3.11c0-.16.14-.3.33-.3Z"/>
          <path class="cls-1" d="M1833.68,425.25v2.67s.04.08.08.08h.77s.08-.04.08-.08v-2.67s-.04-.08-.08-.08h-.77s-.08.04-.08.08ZM1833.58,424.72h1.15c.19,0,.33.14.33.3v3.11c0,.16-.14.3-.33.3h-1.15c-.19,0-.33-.14-.33-.3v-3.11c0-.16.14-.3.33-.3Z"/>
          <path class="cls-1" d="M1805.24,425.25v2.67s.04.08.08.08h.77s.08-.04.08-.08v-2.67s-.04-.08-.08-.08h-.77s-.08.04-.08.08ZM1805.14,424.72h1.15c.19,0,.33.14.33.3v3.11c0,.16-.14.3-.33.3h-1.15c-.19,0-.33-.14-.33-.3v-3.11c0-.16.14-.3.33-.3Z"/>
          <path class="cls-1" d="M1776.8,425.25v2.67s.04.08.08.08h.77s.08-.04.08-.08v-2.67s-.04-.08-.08-.08h-.77s-.08.04-.08.08ZM1776.7,424.72h1.15c.19,0,.33.14.33.3v3.11c0,.16-.14.3-.33.3h-1.15c-.19,0-.33-.14-.33-.3v-3.11c0-.16.14-.3.33-.3Z"/>
          <path class="cls-1" d="M1748.37,425.25v2.67s.04.08.08.08h.77s.08-.04.08-.08v-2.67s-.04-.08-.08-.08h-.77s-.08.04-.08.08ZM1748.26,424.72h1.15c.19,0,.33.14.33.3v3.11c0,.16-.14.3-.33.3h-1.15c-.19,0-.33-.14-.33-.3v-3.11c0-.16.14-.3.33-.3Z"/>
        </g>
        <polygon class="cls-1" points="1649.9 267.54 1573.98 267.54 1573.98 297.61 1575.04 297.61 1575.04 268.6 1649.46 268.6 1703.01 322.16 1703.01 339 1762.01 398 1762.76 397.25 1704.07 338.56 1704.07 321.72 1649.9 267.54"/>
        <polygon class="cls-1" points="1675.42 343.04 1651.02 367.44 1651.02 409.63 1631.09 389.69 1631.09 363.78 1646.52 348.35 1662.49 332.38 1676.85 332.38 1687.51 343.04 1675.42 343.04"/>
        <polygon class="cls-1" points="1676.16 435.91 1666.08 425.83 1666.08 382.08 1688.92 359.24 1702.57 359.24 1710.99 367.66 1710.99 377.34 1728.63 394.99 1728.63 406.04 1706.02 406.04 1697.08 414.98 1697.08 442.54 1686.08 453.55 1676.16 453.55 1676.16 435.91"/>
        <g>
          <path class="cls-1" d="M1783.02,592.2l-.05-.05c-.11-.11-.23-.19-.37-.22-.13-.04-.27-.03-.4,0-.13.04-.26.12-.37.23-.12.11-.19.24-.23.37-.04.13-.04.27,0,.4.04.13.11.26.23.37l.05.06c.12.12.25.2.38.24.14.04.28.05.41,0,.14-.04.26-.11.38-.23.11-.11.19-.24.23-.38.04-.14.03-.28-.01-.41-.04-.14-.13-.27-.25-.39Z"/>
          <path class="cls-1" d="M1771.06,608.34l-1.91-1.91c-.26-.26-.51-.41-.74-.45-.23-.04-.45.04-.66.24-.2.2-.28.42-.24.65.04.23.19.48.45.74l1.91,1.91c.26.26.51.41.74.45.23.04.45-.04.65-.24.2-.2.28-.42.24-.66-.04-.23-.19-.48-.45-.74Z"/>
          <path class="cls-1" d="M1785.37,594.32l-.05-.05c-.12-.12-.25-.2-.4-.23-.15-.03-.3-.02-.45.03-.15.05-.3.15-.43.28-.14.14-.23.28-.28.43-.05.15-.06.3-.03.45.03.15.11.28.23.4l.05.06c.13.13.27.22.43.26s.31.04.47-.01c.16-.05.3-.14.44-.28.13-.13.23-.28.27-.44.05-.16.05-.32,0-.48-.04-.16-.13-.3-.26-.43Z"/>
          <path class="cls-1" d="M1748.6,628.93c-.13-.05-.27-.05-.4-.01-.13.04-.26.11-.38.23-.19.19-.27.4-.25.63s.15.46.39.7l.6.61c.23.23.46.35.68.37.23.02.44-.06.63-.25.12-.12.2-.25.24-.38.04-.13.03-.26,0-.39-.04-.13-.13-.26-.25-.38l-.86-.86c-.13-.13-.26-.22-.4-.26Z"/>
          <path class="cls-1" d="M1776.19,603.21l-1.91-1.91c-.26-.26-.51-.41-.74-.45-.23-.04-.45.04-.65.24-.2.2-.28.42-.24.66.04.23.19.48.45.74l1.91,1.91c.26.26.51.41.74.45s.45-.04.65-.24c.2-.2.28-.42.24-.65-.04-.23-.19-.48-.45-.74Z"/>
          <path class="cls-1" d="M1765.93,613.47l-1.91-1.91c-.26-.26-.51-.41-.74-.45-.23-.04-.45.04-.65.24-.2.2-.28.42-.24.65.04.23.19.48.45.74l1.91,1.91c.26.26.51.41.74.45s.45-.04.65-.24c.2-.2.28-.42.24-.65-.04-.23-.19-.48-.45-.74Z"/>
          <path class="cls-1" d="M1739.71,640.82c.13.04.26.05.39,0,.13-.04.26-.12.38-.24.19-.19.27-.4.25-.63-.02-.23-.14-.46-.37-.68l-.6-.61c-.23-.23-.46-.36-.7-.39-.23-.02-.44.06-.63.25-.12.12-.2.25-.23.38-.04.13-.03.27.01.4.05.13.13.27.26.4l.86.86c.12.12.25.21.38.25Z"/>
          <path class="cls-1" d="M1731.82,648.72c.13.04.26.05.39,0,.13-.04.26-.12.38-.24.19-.19.27-.4.25-.63-.02-.23-.14-.46-.37-.68l-.61-.61c-.23-.23-.46-.36-.7-.39-.23-.02-.44.06-.63.25-.12.12-.2.25-.23.38-.04.13-.03.27.01.4s.13.27.26.4l.86.86c.12.12.25.21.38.25Z"/>
          <path class="cls-1" d="M1876.99,508.44l-16.74,16.74-36.86,36.86h-20.82l-96.59,96.59,13.7,13.7h49.02l21.52-21.52v-14.7l67.29-67.29h26.36l24.91-24.91v-35.47h-31.78ZM1723.85,658.99l-.37-.37c.02.08.03.16.02.25-.02.21-.08.42-.2.63-.12.22-.27.42-.46.6-.41.41-.81.62-1.21.62-.4,0-.79-.19-1.19-.58-.38-.38-.55-.77-.51-1.19.04-.41.28-.85.74-1.3l.92-.92-.16-.16c-.18-.18-.37-.25-.58-.23-.21.02-.43.14-.64.36-.14.14-.26.31-.35.49-.09.19-.15.37-.18.57h-1.24c-.02-.31.04-.65.2-1,.15-.35.38-.67.68-.97.33-.33.67-.56,1.02-.68.35-.12.69-.14,1.02-.05.34.09.65.28.95.58l2.45,2.45-.91.91ZM1728.98,653.85l-1.84-.46.44,1.87-1.07,1.07-.71-3.24-3.04-.63,1.11-1.11,1.77.45-.53-1.69,1.11-1.11.79,3.11,3.08.64-1.1,1.1ZM1733.44,652.49l-5.36-5.36,1.01-1.01.5.5c-.06-.24-.08-.48-.04-.7.05-.29.17-.53.37-.74.27-.27.56-.43.89-.5.32-.06.66-.02,1.01.13.35.15.7.4,1.05.75l.61.61c.35.35.59.69.74,1.04.15.35.19.68.13,1-.06.32-.23.62-.5.89-.22.22-.47.36-.75.41-.22.04-.45.02-.68-.06l2.03,2.03-1.01,1.01ZM1736.8,646.04l-1.01-1.01,1.01-1.01,1.01,1.01-1.01,1.01ZM1741.34,644.59l-5.36-5.36,1.01-1.01.5.5c-.06-.24-.08-.48-.04-.7.05-.29.17-.53.37-.74.27-.27.56-.43.89-.5.32-.06.66-.02,1.01.13.35.15.7.4,1.05.75l.61.61c.35.35.59.69.74,1.04.15.35.19.68.13,1-.06.32-.23.62-.5.89-.22.22-.47.36-.75.41-.22.04-.45.02-.68-.06l2.03,2.03-1.01,1.01ZM1745.01,637.83l-3.81-3.81,1.08-1.08.52.52c-.07-.25-.08-.49-.05-.72.04-.29.16-.54.36-.74.16-.16.33-.28.51-.36.18-.08.36-.12.56-.11l.23,1.41c-.1,0-.19.02-.29.07-.1.05-.19.12-.28.21-.2.2-.29.43-.27.67.02.24.15.48.38.71l2.15,2.15-1.08,1.08ZM1751.32,631.52l-.48-.48c.08.23.1.46.06.68-.05.27-.18.52-.41.75-.27.27-.56.44-.89.5-.32.06-.66.02-1-.12-.35-.15-.69-.39-1.04-.74l-.61-.61c-.35-.35-.6-.7-.75-1.05-.15-.35-.19-.69-.13-1.01.06-.32.23-.62.5-.89.2-.2.45-.33.74-.37.22-.04.45-.02.7.04l-2.02-2.02,1.01-1.01,5.34,5.33-1.01,1.01ZM1756.92,625.48c-.06.24-.15.47-.29.7-.14.23-.31.45-.52.66-.36.36-.74.6-1.14.72-.4.12-.79.12-1.19-.01-.4-.13-.78-.38-1.16-.75l-.41-.41c-.37-.37-.62-.75-.74-1.15-.13-.4-.13-.79,0-1.19.12-.39.36-.77.72-1.14.21-.21.43-.38.66-.52.23-.14.47-.23.7-.29.24-.06.47-.07.7-.04l-.02,1.28c-.18,0-.35.05-.53.13-.17.08-.33.18-.46.32-.25.25-.38.52-.39.79,0,.28.12.54.37.78l.41.41c.25.25.52.38.8.38.28,0,.54-.13.8-.38.14-.14.25-.3.32-.47.07-.18.11-.36.1-.54l1.32.02c.03.23.01.46-.05.7ZM1760.4,622.48c-.33.33-.66.49-.99.48-.33-.01-.65-.19-.99-.52l-1.96-1.96-.39.39-.86-.86.39-.39-1.11-1.11,1.01-1.01,1.11,1.11.47-.47.86.86-.47.47,1.71,1.71c.09.09.18.15.27.16.09.01.17-.02.24-.09l.25-.25.97.97-.51.51ZM1762.73,620.11l-1.01-1.01,1.01-1.01,1,1.01-1,1.01ZM1767.12,615.83c-.52.52-1.05.78-1.59.79-.54,0-1.05-.23-1.52-.71l-2.43-2.43c-.48-.48-.72-.99-.71-1.53,0-.54.27-1.07.79-1.59.52-.52,1.05-.79,1.59-.79.54,0,1.04.23,1.53.71l2.43,2.43c.48.48.72.99.71,1.53,0,.54-.27,1.07-.79,1.59ZM1772.24,610.7c-.52.52-1.05.78-1.59.79-.54,0-1.05-.23-1.52-.71l-2.43-2.43c-.48-.48-.71-.99-.71-1.53,0-.54.27-1.07.79-1.59s1.05-.79,1.59-.79c.54,0,1.04.23,1.53.71l2.43,2.43c.48.48.72.99.71,1.53,0,.54-.27,1.07-.79,1.59ZM1777.37,605.58c-.52.52-1.05.78-1.59.79-.54,0-1.05-.23-1.52-.71l-2.43-2.43c-.48-.48-.71-.99-.71-1.53,0-.54.27-1.07.79-1.59.52-.52,1.05-.78,1.59-.79.54,0,1.04.23,1.53.71l2.43,2.43c.48.48.72.99.71,1.53,0,.54-.27,1.07-.79,1.59ZM1781.42,601.42l-4.15-4.15-.4.9-1.07-1.07.44-1.16.86-.86,5.34,5.33-1.01,1.01ZM1787.01,595.57c-.13.38-.37.74-.71,1.07-.34.34-.69.57-1.07.71-.38.13-.75.16-1.11.07-.36-.08-.69-.27-.99-.57l-.09-.09c-.27-.27-.44-.59-.53-.97-.09-.38-.07-.75.05-1.12-.31.11-.63.13-.95.07-.32-.06-.58-.2-.8-.42l-.14-.14c-.28-.28-.46-.59-.54-.93-.08-.34-.06-.69.06-1.05.12-.36.34-.69.66-1.01.32-.32.65-.53,1.01-.66.35-.12.7-.14,1.05-.06.34.08.65.26.93.54l.14.14c.22.22.36.49.42.81.06.32.03.64-.08.95.37-.12.75-.14,1.13-.06.38.08.71.26.97.53l.09.09c.3.3.49.63.57.99.08.36.06.73-.07,1.11ZM1792.05,590.79l-.82-.82-2.15,2.15-.92-.92-1.94-5.23,1.14-1.14,1.94,5.14.97-.97-1.35-1.35,1.01-1.01,1.35,1.35.42-.42.97.97-.42.42.82.82-1,1.01ZM1797.53,585.03c-.11.36-.32.71-.65,1.04-.33.33-.67.55-1.03.65-.36.11-.72.1-1.08-.02-.36-.12-.72-.35-1.06-.69h0c-.19-.2-.37-.42-.54-.69-.17-.26-.32-.55-.45-.85-.02-.05-.04-.1-.06-.16-.02-.05-.04-.1-.06-.16l-1.21-3.38,1.14-1.14,1.13,3.24c.05-.07.11-.15.18-.22.29-.29.61-.48.94-.57.33-.08.67-.06,1.02.07.35.13.69.36,1.02.7h0c.34.35.57.7.7,1.07.12.37.13.73.02,1.09ZM1802.63,579.93c-.11.36-.33.71-.66,1.04-.29.29-.61.48-.96.58-.35.1-.72.1-1.1,0-.38-.1-.74-.31-1.1-.62h0s1.01-1.01,1.01-1.01h0c.22.18.43.27.64.28.21,0,.39-.07.56-.23.18-.18.26-.37.24-.58-.02-.21-.13-.42-.34-.63l-.45-.45c-.21-.21-.42-.33-.62-.36-.2-.03-.38.04-.54.19-.14.14-.23.3-.26.48-.03.17,0,.35.1.52l-.94.94-3.07-3.07,2.87-2.87.97.97-1.86,1.86.94.94c0-.15.05-.31.14-.48.09-.17.2-.33.33-.45.28-.28.58-.45.9-.52.32-.07.66-.03,1.01.11.35.14.69.39,1.04.73l.45.45c.35.35.58.7.7,1.07.12.37.13.73.02,1.1ZM1805.49,577.34l-.91-.91-.58-4.24c-.02-.19-.07-.37-.14-.52-.07-.16-.15-.29-.25-.39h0c-.14-.15-.3-.22-.47-.2-.17.01-.34.11-.51.28-.17.17-.25.36-.24.57,0,.21.1.43.28.65h0s-1.03,1.03-1.03,1.03h0c-.31-.36-.52-.72-.62-1.1-.1-.38-.1-.75.01-1.11.11-.36.32-.7.63-1,.33-.33.67-.56,1.02-.69.34-.13.68-.15,1.01-.06.33.08.64.27.94.57h0c.24.25.44.53.59.85.15.32.25.66.29,1l.34,2.97,1.82-1.82.97.97-3.16,3.16ZM1883.21,550.05c-7.36,0-13.34-5.98-13.34-13.34s5.98-13.34,13.34-13.34,13.34,5.98,13.34,13.34-5.98,13.34-13.34,13.34Z"/>
          <path class="cls-1" d="M1722.36,657.5l-.92.92c-.15.15-.24.3-.25.43-.02.14.04.26.16.39.12.12.27.17.42.13.16-.04.33-.15.52-.34.27-.27.44-.5.51-.69.07-.19.04-.35-.09-.48h0s-.35-.35-.35-.35Z"/>
          <path class="cls-1" d="M1795.86,583.94c-.22-.22-.44-.34-.65-.36-.21-.02-.41.06-.59.23-.18.18-.25.37-.23.59.02.22.15.44.36.65h0c.19.19.39.29.59.3.2,0,.39-.08.56-.25.18-.18.26-.37.26-.57,0-.2-.11-.4-.3-.59h0Z"/>
        </g>
      </g>
      <g>
        <polygon class="cls-1" points="734.65 108.12 727.51 100.98 727.23 101.26 734.25 108.28 734.25 117.38 734.65 117.38 734.65 108.12"/>
        <polygon class="cls-1" points="744.45 119.75 744.45 101.13 730.12 86.8 729.28 87.64 743.27 101.62 743.27 119.75 744.45 119.75"/>
        <polygon class="cls-1" points="735.76 58.02 732.96 60.82 760.7 88.56 760.7 124.48 764.66 124.48 764.66 86.92 735.76 58.02"/>
        <polygon class="cls-1" points="279.08 48.27 273.3 54.05 273.3 62.79 273.7 62.79 273.7 54.22 279.36 48.55 279.08 48.27"/>
        <polygon class="cls-1" points="264.17 46.66 264.17 64.21 265.36 64.21 265.36 47.15 276.63 35.88 275.79 35.04 264.17 46.66"/>
        <polygon class="cls-1" points="249.29 33.27 271.6 10.96 268.8 8.15 245.33 31.62 245.33 67.05 249.29 67.05 249.29 33.27"/>
        <rect class="cls-1" x="725.66" y="46.44" width="1.19" height="9.74" transform="translate(176.44 528.58) rotate(-45)"/>
        <rect class="cls-1" x="702.49" y="134.45" width="584.66" height="2"/>
        <rect class="cls-1" x="273.63" y="2.19" width="6.69" height="1.19" transform="translate(79.15 196.66) rotate(-45)"/>
        <rect class="cls-1" x="246.71" y="74.28" width="1.19" height="79.91"/>
        <path class="cls-1" d="M678.37,144.48c6.45,0,11.7-5.25,11.7-11.7s-5.25-11.7-11.7-11.7-11.7,5.25-11.7,11.7,5.25,11.7,11.7,11.7Z"/>
        <path class="cls-1" d="M567.72,141.02h44.56l15.15,15.15h26.64l-93.75-93.75h-97.74l-19.2-19.2-30.51,30.51h-118.04v82.44h257.73l15.15-15.15ZM476.47,101.66h92.99l7.77,7.77v9.91h-100.76v-17.68ZM474.1,119.33h-98.8v-17.68h98.8v17.68ZM372.92,119.33h-51.1v-17.68h51.1v17.68ZM319.45,101.66v17.68h-23.42v-17.68h23.42ZM314.22,146.46h-9.69v-9.69h9.69v9.69Z"/>
        <polygon class="cls-1" points="305.49 165.81 302.51 162.82 299.01 162.82 299.01 163.22 302.34 163.22 305.1 165.97 305.1 171.91 305.49 171.91 305.49 165.81"/>
        <rect class="cls-1" x="308.15" y="166.05" width="1.19" height="5.87"/>
        <polygon class="cls-1" points="335.09 165.81 332.1 162.82 328.61 162.82 328.61 163.22 331.94 163.22 334.69 165.97 334.69 171.91 335.09 171.91 335.09 165.81"/>
        <rect class="cls-1" x="337.74" y="166.05" width="1.19" height="5.87"/>
        <polygon class="cls-1" points="364.68 165.81 361.69 162.82 358.2 162.82 358.2 163.22 361.53 163.22 364.28 165.97 364.28 171.91 364.68 171.91 364.68 165.81"/>
        <rect class="cls-1" x="367.34" y="166.05" width="1.19" height="5.87"/>
        <polygon class="cls-1" points="394.27 165.81 391.29 162.82 387.8 162.82 387.8 163.22 391.12 163.22 393.88 165.97 393.88 171.91 394.27 171.91 394.27 165.81"/>
        <rect class="cls-1" x="396.93" y="166.05" width="1.19" height="5.87"/>
        <polygon class="cls-1" points="423.87 165.81 420.88 162.82 417.39 162.82 417.39 163.22 420.72 163.22 423.47 165.97 423.47 171.91 423.87 171.91 423.87 165.81"/>
        <rect class="cls-1" x="426.52" y="166.05" width="1.19" height="5.87"/>
        <polygon class="cls-1" points="453.46 165.81 450.48 162.82 446.98 162.82 446.98 163.22 450.31 163.22 453.07 165.97 453.07 171.91 453.46 171.91 453.46 165.81"/>
        <rect class="cls-1" x="456.12" y="166.05" width="1.19" height="5.87"/>
        <polygon class="cls-1" points="483.06 165.81 480.07 162.82 476.58 162.82 476.58 163.22 479.91 163.22 482.66 165.97 482.66 171.91 483.06 171.91 483.06 165.81"/>
        <rect class="cls-1" x="485.71" y="166.05" width="1.19" height="5.87"/>
        <polygon class="cls-1" points="512.65 165.81 509.66 162.82 506.17 162.82 506.17 163.22 509.5 163.22 512.25 165.97 512.25 171.91 512.65 171.91 512.65 165.81"/>
        <rect class="cls-1" x="515.31" y="166.05" width="1.19" height="5.87"/>
        <polygon class="cls-1" points="542.24 165.81 539.26 162.82 535.77 162.82 535.77 163.22 539.1 163.22 541.85 165.97 541.85 171.91 542.24 171.91 542.24 165.81"/>
        <rect class="cls-1" x="544.9" y="166.05" width="1.19" height="5.87"/>
        <polygon class="cls-1" points="571.84 165.81 568.85 162.82 565.36 162.82 565.36 163.22 568.69 163.22 571.44 165.97 571.44 171.91 571.84 171.91 571.84 165.81"/>
        <rect class="cls-1" x="574.49" y="166.05" width="1.19" height="5.87"/>
        <polygon class="cls-1" points="601.43 165.81 598.45 162.82 594.95 162.82 594.95 163.22 598.28 163.22 601.04 165.97 601.04 171.91 601.43 171.91 601.43 165.81"/>
        <rect class="cls-1" x="604.09" y="166.05" width="1.19" height="5.87"/>
        <polygon class="cls-1" points="631.03 165.81 628.04 162.82 624.55 162.82 624.55 163.22 627.88 163.22 630.63 165.97 630.63 171.91 631.03 171.91 631.03 165.81"/>
        <rect class="cls-1" x="633.68" y="166.05" width="1.19" height="5.87"/>
        <polygon class="cls-1" points="660.62 171.91 660.62 165.81 657.63 162.82 654.14 162.82 654.14 163.22 657.47 163.22 660.22 165.97 660.22 171.91 660.62 171.91"/>
        <rect class="cls-1" x="663.28" y="166.05" width="1.19" height="5.87"/>
        <polygon class="cls-1" points="690.21 171.91 690.21 165.81 687.23 162.82 683.74 162.82 683.74 163.22 687.07 163.22 689.82 165.97 689.82 171.91 690.21 171.91"/>
        <rect class="cls-1" x="692.87" y="166.05" width="1.19" height="5.87"/>
        <rect class="cls-1" x="504.27" y="50.75" width="9.11" height=".21"/>
        <rect class="cls-1" x="372.69" y="25.67" width="9.11" height="1.19"/>
        <rect class="cls-1" x="372.69" y="20.13" width="9.11" height="1.19"/>
        <rect class="cls-1" x="372.69" y="14.59" width="9.11" height="1.19"/>
        <rect class="cls-1" x="290.56" y="146.93" width="1.45" height="1.45"/>
        <rect class="cls-1" x="290.56" y="128.02" width="1.45" height="1.45"/>
        <rect class="cls-1" x="290.56" y="123.3" width="1.45" height="1.45"/>
        <rect class="cls-1" x="290.56" y="118.57" width="1.45" height="1.45"/>
        <rect class="cls-1" x="290.56" y="113.84" width="1.45" height="1.45"/>
        <rect class="cls-1" x="290.56" y="85.48" width="1.45" height="1.45"/>
        <rect class="cls-1" x="247.26" y="73.65" width="49.54" height="1.83"/>
        <rect class="cls-1" x="300.37" y="115.29" width=".2" height="4"/>
        <rect class="cls-1" x="308.14" y="115.29" width=".2" height="4"/>
        <rect class="cls-1" x="315.91" y="115.29" width=".2" height="4"/>
        <rect class="cls-1" x="323.68" y="115.29" width=".2" height="4"/>
        <rect class="cls-1" x="331.45" y="115.29" width=".2" height="4"/>
        <rect class="cls-1" x="339.22" y="115.29" width=".2" height="4"/>
        <rect class="cls-1" x="346.99" y="115.29" width=".2" height="4"/>
        <rect class="cls-1" x="354.76" y="115.29" width=".2" height="4"/>
        <rect class="cls-1" x="362.53" y="115.29" width=".2" height="4"/>
        <rect class="cls-1" x="370.3" y="115.29" width=".2" height="4"/>
        <rect class="cls-1" x="378.07" y="115.29" width=".2" height="4"/>
        <rect class="cls-1" x="385.84" y="115.29" width=".2" height="4"/>
        <rect class="cls-1" x="393.61" y="115.29" width=".2" height="4"/>
        <rect class="cls-1" x="401.38" y="115.29" width=".2" height="4"/>
        <rect class="cls-1" x="409.15" y="115.29" width=".2" height="4"/>
        <rect class="cls-1" x="416.92" y="115.29" width=".2" height="4"/>
        <rect class="cls-1" x="424.69" y="115.29" width=".2" height="4"/>
        <rect class="cls-1" x="432.45" y="115.29" width=".2" height="4"/>
        <rect class="cls-1" x="440.22" y="115.29" width=".2" height="4"/>
        <rect class="cls-1" x="447.99" y="115.29" width=".2" height="4"/>
        <rect class="cls-1" x="455.76" y="115.29" width=".2" height="4"/>
        <rect class="cls-1" x="463.53" y="115.29" width=".2" height="4"/>
        <rect class="cls-1" x="471.3" y="115.29" width=".2" height="4"/>
        <rect class="cls-1" x="479.07" y="115.29" width=".2" height="4"/>
        <rect class="cls-1" x="486.84" y="115.29" width=".2" height="4"/>
        <rect class="cls-1" x="494.61" y="115.29" width=".2" height="4"/>
        <rect class="cls-1" x="502.38" y="115.29" width=".2" height="4"/>
        <rect class="cls-1" x="510.15" y="115.29" width=".2" height="4"/>
        <rect class="cls-1" x="517.92" y="115.29" width=".2" height="4"/>
        <rect class="cls-1" x="525.69" y="115.29" width=".2" height="4"/>
        <rect class="cls-1" x="533.46" y="115.29" width=".2" height="4"/>
        <rect class="cls-1" x="541.23" y="115.29" width=".2" height="4"/>
        <rect class="cls-1" x="549" y="115.29" width=".2" height="4"/>
        <rect class="cls-1" x="556.77" y="115.29" width=".2" height="4"/>
        <rect class="cls-1" x="564.53" y="115.29" width=".2" height="4"/>
        <rect class="cls-1" x="572.3" y="115.29" width=".2" height="4"/>
        <rect class="cls-1" x="424.88" y="31.87" width="1.83" height="1.83" transform="translate(101.54 310.7) rotate(-45)"/>
        <path class="cls-1" d="M326.65,58.36h80.88l25.5-25.5-25.66-25.66-.33.33h-34.34l-15.55,15.55h-17.29l-35.28,35.28h22.08ZM307.44,57.17l32.9-32.9h17.29l.35-.35,15.2-15.2h34.03l24.14,24.14-24.31,24.31h-80.39v-7.73l18.1-18.1h27.95v.4h9.11v-1.19h-9.11v.4h-28.11l-18.33,18.33v7.9h-18.81Z"/>
        <path class="cls-1" d="M569.38,62.42l93.75,93.75h44.09v-36.74l-57.01-57.01h-80.84ZM678.37,117.11c8.64,0,15.66,7.03,15.66,15.66s-7.03,15.66-15.66,15.66-15.66-7.03-15.66-15.66,7.03-15.66,15.66-15.66ZM659.69,80.62v10.06l-15.63,15.63v21.91l3.49,3.49.42-.42,6.46,6.46-1.4,1.4-6.46-6.46.42-.42-3.72-3.72v-22.57l15.63-15.63v-9.4l-4.16-4.16-.42.42-8.12-8.12,1.4-1.4,8.12,8.12-.42.42,4.4,4.4Z"/>
        <rect class="cls-1" x="635.59" y="54.63" width="1.19" height="3.12"/>
        <rect class="cls-1" x="627.62" y="54.63" width="1.19" height="3.12"/>
        <rect class="cls-1" x="619.66" y="54.63" width="1.19" height="3.12"/>
        <rect class="cls-1" x="611.69" y="54.63" width="1.19" height="3.12"/>
        <rect class="cls-1" x="603.73" y="54.63" width="1.19" height="3.12"/>
        <rect class="cls-1" x="595.76" y="54.63" width="1.19" height="3.12"/>
        <rect class="cls-1" x="587.79" y="54.63" width="1.19" height="3.12"/>
        <rect class="cls-1" x="579.83" y="54.63" width="1.19" height="3.12"/>
        <rect class="cls-1" x="571.86" y="54.63" width="1.19" height="3.12"/>
        <rect class="cls-1" x="563.9" y="54.63" width="1.19" height="3.12"/>
        <rect class="cls-1" x="555.93" y="54.63" width="1.19" height="3.12"/>
        <rect class="cls-1" x="547.97" y="54.63" width="1.19" height="3.12"/>
        <rect class="cls-1" x="540" y="54.63" width="1.19" height="3.12"/>
        <rect class="cls-1" x="532.04" y="54.63" width="1.19" height="3.12"/>
        <rect class="cls-1" x="524.07" y="54.63" width="1.19" height="3.12"/>
        <rect class="cls-1" x="516.11" y="54.63" width="1.19" height="3.12"/>
        <rect class="cls-1" x="508.14" y="54.63" width="1.19" height="3.12"/>
        <rect class="cls-1" x="500.18" y="54.63" width="1.19" height="3.12"/>
        <rect class="cls-1" x="492.21" y="54.63" width="1.19" height="3.12"/>
        <rect class="cls-1" x="484.25" y="54.63" width="1.19" height="3.12"/>
        <rect class="cls-1" x="476.28" y="54.63" width="1.19" height="3.12"/>
        <rect class="cls-1" x="468.32" y="54.63" width="1.19" height="3.12"/>
      </g>
      <g>
        <polygon class="cls-1" points="1271.3 147.02 1241.14 147.02 1241.14 161.35 1538.59 161.35 1538.59 134.52 1281.39 134.52 1271.3 147.02"/>
        <path class="cls-1" d="M1594.78,134.52v12.23h-28.96l-27.22,14.6v-26.84s56.64-.46,56.18,0Z"/>
        <path class="cls-1" d="M1241.14,147.02h-314.5l7.59,7.59h257.16l7.43,6.75h42.33v-14.34Z"/>
      </g>
      <polygon class="cls-1" points="242.02 214.67 242.02 244.09 230.45 255.66 230.45 303.07 239.93 312.55 239.93 491.5 251.24 502.81 251.24 518.31 274.65 518.49 274.65 505.9 249.53 480.77 249.53 148.38 242.88 155.03 242.02 244.09 242.02 214.67"/>
      <path class="cls-1" d="M363.13,671.97h69.34v-15.44l-28.19-28.19h-23.07l-85.22-85.22v-15.9l-27.5-27.5-7.95,7.95-14.17,14.17v33.37l15.64,15.64h19.33l22.71,22.71v19.33l59.08,59.08ZM402.18,658.92h-24.71l-15.74-15.74h-12.95l-31.68-31.68v-15.54l6.77-6.77h7.77l50.61,50.61h20.52l5.78,5.78v6.97l-6.38,6.38Z"/>
      <polygon class="cls-1" points="432.47 671.97 593.07 671.97 604.42 684.58 672.35 684.58 691.07 666.46 519.67 666.46 508.11 654.9 423.16 654.9 432.47 671.97"/>
      <polygon class="cls-1" points="238.11 211.46 238.11 181.3 226.55 181.3 226.55 478.75 248.2 478.75 248.2 221.55 238.11 211.46"/>
      <polygon class="cls-1" points="200.31 505.78 193.29 498.76 193.01 499.04 200.15 506.18 209.41 506.18 209.41 505.78 200.31 505.78"/>
      <polygon class="cls-1" points="211.78 515.98 211.78 514.79 193.65 514.79 179.67 500.81 178.83 501.65 193.16 515.98 211.78 515.98"/>
      <polygon class="cls-1" points="180.59 532.22 152.85 504.49 150.05 507.29 178.95 536.19 216.51 536.19 216.51 532.22 180.59 532.22"/>
      <polygon class="cls-1" points="178.34 72 187.09 66.34 200.32 66.34 200.32 65.94 186.84 65.94 177.91 71.72 178.34 72"/>
      <polygon class="cls-1" points="202.52 56.82 175.42 56.82 157.47 68.44 158.77 69.28 176.18 58.01 202.52 58.01 202.52 56.82"/>
      <polygon class="cls-1" points="206.9 41.93 206.9 37.97 152.2 37.97 115.95 61.44 120.28 64.24 154.73 41.93 206.9 41.93"/>
      <rect class="cls-1" x="145.4" y="493.85" width="1.19" height="17.13" transform="translate(-312.5 250.38) rotate(-45)"/>
      <rect class="cls-1" x="224.81" y="533.61" width="7.24" height="1.19"/>
      <polygon class="cls-1" points="110.66 66.83 103.36 71.56 104.66 72.4 111.96 67.67 110.66 66.83"/>
      <rect class="cls-1" x="218.07" y="39.36" width="9.86" height="1.19"/>
      <path class="cls-1" d="M230.07,96.58c0-6.45-5.25-11.7-11.7-11.7s-11.7,5.25-11.7,11.7,5.25,11.7,11.7,11.7,11.7-5.25,11.7-11.7Z"/>
      <path class="cls-1" d="M115.11,128.67l-18.51,18.51,21.32,21.32h120.19v-28.36h10.09v-73.77h-88.08l-20.91,20.91,63.26,63.26-31.97-31.97-24.73-24.73-6.56-6.56-7.8,7.8-16.3,16.3v17.29ZM202.7,96.58c0-8.64,7.03-15.66,15.66-15.66s15.66,7.03,15.66,15.66-7.03,15.66-15.66,15.66-15.66-7.03-15.66-15.66ZM200.8,150.54l-1.71,1.71h-8.82l-25.88-25.88,6.12-6.12,30.29,30.29ZM168.82,118.57l-6.12,6.12-23.05-23.05,6.12-6.12,23.05,23.05ZM139.21,88.96l4.88,4.88-6.12,6.12-4.88-4.88,6.12-6.12Z"/>
      <path class="cls-1" d="M209.5,188.82c-.1-.12-.24-.18-.43-.18s-.34.08-.44.23c-.1.15-.14.38-.14.68,0,.43.05.74.15.95.1.21.25.31.45.31h.56v-1.45c0-.24-.05-.42-.14-.54Z"/>
      <path class="cls-1" d="M208.79,205.53c-.07.13-.11.3-.11.48,0,.3.1.53.3.69s.48.25.84.25h.96c.37,0,.65-.08.86-.25.2-.16.3-.4.3-.69,0-.19-.04-.35-.11-.48-.08-.13-.18-.23-.33-.3-.14-.07-.32-.1-.52-.1h-1.35c-.2,0-.37.03-.5.1-.14.07-.25.17-.32.3Z"/>
      <path class="cls-1" d="M208.79,218.02c-.07.13-.11.3-.11.48,0,.3.1.53.3.69.2.16.48.25.84.25h.96c.37,0,.65-.08.86-.25.2-.16.3-.4.3-.69,0-.19-.04-.35-.11-.48-.08-.13-.18-.23-.33-.3-.14-.07-.32-.1-.52-.1h-1.35c-.2,0-.37.03-.5.1-.14.07-.25.17-.32.3Z"/>
      <path class="cls-1" d="M208.74,289.2c0,.28.08.5.25.65s.4.23.7.23h0c.35,0,.62-.08.8-.23s.28-.37.28-.65-.1-.49-.29-.65c-.19-.15-.46-.23-.8-.23h0c-.3,0-.53.08-.7.23-.16.15-.24.37-.24.65Z"/>
      <path class="cls-1" d="M212.48,296.9c-.08.14-.12.3-.12.48s.04.34.12.48.19.24.34.32c.15.08.31.11.5.11h.08c.18,0,.33-.04.47-.11.13-.08.24-.18.31-.32s.11-.3.11-.48-.04-.34-.11-.48c-.07-.14-.18-.24-.31-.32-.14-.08-.29-.11-.47-.11h-.09c-.19,0-.35.04-.49.11-.14.08-.25.18-.33.32Z"/>
      <path class="cls-1" d="M208.74,305.55c0,.28.08.5.25.65s.4.23.7.23h0c.35,0,.62-.08.8-.23s.28-.37.28-.65-.1-.49-.29-.65c-.19-.15-.46-.23-.8-.23h0c-.3,0-.53.08-.7.23-.16.15-.24.37-.24.65Z"/>
      <path class="cls-1" d="M74.81,168.97v42.37h.2l44.59,44.58h13.7v-74.62h-20.68l-25.07-25.07-12.74,12.74ZM76,210.65v-17.26h4.84l7.51,7.51v10.04h-12.06l-.29-.29ZM132.11,254.74h-12.02l-43.4-43.4h11.78l33.49,33.49h10.15v9.9ZM111.78,182.14l.35.35h19.98v61.95h-9.98l-33.38-33.38v-10.32l-7.75-7.75h-5v-23.53l11.55-11.55,24.23,24.23Z"/>
      <path class="cls-1" d="M208.87,296.81c-.09.16-.13.35-.13.57s.04.4.13.57c.09.16.21.29.37.38s.34.14.55.14h.08c.19,0,.36-.05.5-.14s.25-.22.33-.38c.08-.16.12-.35.12-.57s-.04-.41-.12-.57c-.08-.16-.19-.29-.34-.38-.15-.09-.31-.14-.5-.14h-.09c-.21,0-.39.05-.54.14-.16.09-.28.22-.36.38Z"/>
      <path class="cls-1" d="M208.74,275.36c0,.32.11.56.33.71.22.15.53.23.94.23h3.02c.41,0,.72-.08.94-.23.22-.15.33-.39.33-.71s-.11-.56-.33-.71c-.22-.15-.53-.23-.94-.23h-3.02c-.41,0-.72.08-.94.23-.22.15-.33.39-.33.71Z"/>
      <path class="cls-1" d="M208.68,233.36c0,.19.04.35.11.48.07.13.18.24.32.3.14.07.31.1.5.1h1.35c.21,0,.38-.03.52-.1.14-.07.25-.17.33-.3.08-.13.11-.29.11-.48,0-.3-.1-.53-.3-.69-.2-.16-.49-.25-.86-.25h-.96c-.36,0-.64.08-.84.25s-.3.4-.3.69Z"/>
      <path class="cls-1" d="M208.74,267.25c0,.32.11.56.33.71.22.15.53.23.94.23h3.02c.41,0,.72-.08.94-.23.22-.15.33-.39.33-.71s-.11-.56-.33-.71c-.22-.15-.53-.23-.94-.23h-3.02c-.41,0-.72.08-.94.23-.22.15-.33.39-.33.71Z"/>
      <path class="cls-1" d="M208.74,259.14c0,.32.11.56.33.71.22.15.53.23.94.23h3.02c.41,0,.72-.08.94-.23.22-.15.33-.39.33-.71s-.11-.56-.33-.71c-.22-.15-.53-.23-.94-.23h-3.02c-.41,0-.72.08-.94.23-.22.15-.33.39-.33.71Z"/>
      <polygon class="cls-1" points="50.66 322.09 50.66 275 35.65 259.99 29.47 259.99 29.47 260.39 35.48 260.39 50.26 275.17 50.26 322.26 134.2 406.19 134.48 405.91 50.66 322.09"/>
      <polygon class="cls-1" points="137.41 407.32 135.61 409.2 140.03 413.8 141.84 411.93 137.41 407.32"/>
      <polygon class="cls-1" points="110.52 113.91 110.52 109.7 113.79 106.43 113.51 106.15 110.13 109.53 110.13 113.91 110.52 113.91"/>
      <polygon class="cls-1" points="104.25 113.91 104.25 109.7 107.52 106.43 107.24 106.15 103.86 109.53 103.86 113.91 104.25 113.91"/>
      <polygon class="cls-1" points="97.98 113.91 97.98 109.7 101.25 106.43 100.97 106.15 97.59 109.53 97.59 113.91 97.98 113.91"/>
      <polygon class="cls-1" points="91.71 113.91 91.71 109.7 94.98 106.43 94.7 106.15 91.32 109.53 91.32 113.91 91.71 113.91"/>
      <polygon class="cls-1" points="85.44 113.91 85.44 109.7 88.71 106.43 88.43 106.15 85.05 109.53 85.05 113.91 85.44 113.91"/>
      <polygon class="cls-1" points="79.17 113.91 79.17 109.7 82.44 106.43 82.16 106.15 78.78 109.53 78.78 113.91 79.17 113.91"/>
      <polygon class="cls-1" points="75.89 106.15 72.51 109.53 72.51 113.91 72.9 113.91 72.9 109.7 76.17 106.43 75.89 106.15"/>
      <polygon class="cls-1" points="67.03 113.91 67.03 109.86 70.18 106.71 69.34 105.87 65.84 109.37 65.84 113.91 67.03 113.91"/>
      <polygon class="cls-1" points="22.31 149.23 41.7 149.23 62.76 128.17 62.76 109.88 62.36 109.88 62.36 128.01 41.54 148.83 22.15 148.83 8.36 162.63 8.36 176.19 0 176.19 0 176.58 8.75 176.58 8.75 162.79 22.31 149.23"/>
      <rect class="cls-1" x="173.87" y="288.5" width=".4" height="56.32"/>
      <rect class="cls-1" x="168.91" y="288.5" width=".4" height="56.32"/>
      <rect class="cls-1" x="163.94" y="288.5" width=".4" height="56.32"/>
      <rect class="cls-1" x="158.97" y="288.5" width=".4" height="56.32"/>
      <rect class="cls-1" x="154.01" y="288.5" width=".4" height="56.32"/>
      <path class="cls-1" d="M142.84,181.3v86.65h-27.92l-51.84-51.84v-35.5H0v54.26l22.21,22.21h33.4l9.24,9.24v56.5l68.46,68.46v9.32l14.84,14.84,32.83,32.83,30.49,30.49h8.69V181.3h-77.3ZM62.13,181.66l-4.6,4.6v-4.6h4.6ZM6.47,187.08v-5.43h17.55v5.43H6.47ZM27.8,187.08v-5.43h12.37v5.43h-12.37ZM42.24,187.08v-5.43h8.42v5.43h-8.42ZM51.66,187.08v-5.43h5.46v5.01l-.42.42h-5.04ZM30.7,215.63v-1.19h14.93v1.19h-14.93ZM30.7,221.24v-2.38h14.93v2.38h-14.93ZM30.7,231.72v-3.96h14.93v3.96h-14.93ZM30.7,251.08v-7.92h14.93v7.92h-14.93ZM148.14,206.04h32.83s-21.88,0-21.88,0h-10.94ZM179.78,354.33v44.93h-30.45v-44.93h30.45ZM174.66,353.14v-6.04h-1.19v6.04h-3.78v-6.04h-1.19v6.04h-3.78v-6.04h-1.19v6.04h-3.78v-6.04h-1.19v6.04h-3.78v-6.04h-1.19v6.04h-4.28v-145.91h1.31v1.67l7.32,7.32v4.89h1.19v-4.65h1.61v4.65h1.19v-4.65h1.61v4.65h1.19v-4.65h1.61v4.65h1.19v-4.65h1.61v4.65h1.19v-4.89l7.32-7.32v-1.67h2.14v145.91h-5.11ZM159.08,207.23h18.16v1.51l-5.17,5.17h-15.87l-5.17-5.17v-1.51h8.05ZM81.84,317l-2.84-2.84v-4.01l2.84-2.84h4.01l2.84,2.84v4.01l-2.84,2.84h-4.01ZM149.33,414.94v-14.49h30.45v44.94l-30.45-30.45ZM209.7,303.06v1.59h0c-.31.03-.55.13-.72.28-.17.16-.26.37-.26.62,0,.28.09.49.27.65s.44.23.77.23h.71c.33,0,.59-.07.77-.21.18-.14.27-.33.27-.58,0-.23-.06-.42-.17-.58s-.28-.27-.49-.33v-1.49h4.85v4.53h-1.53v-2.94h-1.49c.12.12.21.28.28.49.07.21.1.41.1.62,0,.44-.1.81-.3,1.12s-.5.55-.88.71c-.39.16-.85.24-1.4.24h-.71c-.55,0-1.01-.1-1.4-.29-.39-.2-.68-.48-.88-.85-.2-.37-.3-.82-.3-1.35,0-.45.1-.86.3-1.22.2-.36.49-.65.87-.87.38-.22.83-.35,1.35-.38h0ZM209.72,295c.31,0,.63.04.97.11s.68.18,1.03.32c.06.02.12.05.17.07.06.03.11.05.17.08l3.63,1.71v1.8l-3.46-1.67c.02.1.03.2.03.31,0,.46-.1.86-.3,1.19-.2.33-.48.58-.86.75-.38.17-.83.26-1.36.26h0c-.54,0-1.01-.1-1.39-.29-.39-.19-.68-.47-.88-.84-.2-.37-.3-.82-.3-1.34s.1-.96.3-1.33c.2-.37.49-.65.87-.84.38-.19.84-.29,1.38-.29h0ZM209.76,286.73c.31,0,.63.04.97.11s.68.18,1.03.32c.06.02.12.05.17.07.06.03.11.05.17.08l3.63,1.71v1.8l-3.46-1.67c.02.1.03.2.03.31,0,.46-.1.86-.3,1.19-.2.33-.48.58-.86.75-.38.17-.83.26-1.36.26h0c-.54,0-1.01-.1-1.39-.29s-.68-.47-.88-.84c-.2-.37-.3-.82-.3-1.34s.1-.96.3-1.33c.2-.37.49-.65.87-.84.38-.19.84-.29,1.38-.29h0ZM215.16,280.82l.57,1.26v1.36h-8.44v-1.59h6.57l-.39-1.03h1.69ZM213.44,272.83c.76,0,1.35.22,1.77.65s.63,1.06.63,1.88-.21,1.45-.63,1.88c-.42.43-1.01.64-1.77.64h-3.84c-.76,0-1.35-.22-1.77-.65s-.63-1.06-.63-1.88.21-1.45.64-1.88c.42-.43,1.01-.64,1.76-.64h3.84ZM213.44,264.73c.76,0,1.35.22,1.77.65s.63,1.06.63,1.88-.21,1.45-.63,1.88c-.42.43-1.01.64-1.77.64h-3.84c-.76,0-1.35-.22-1.77-.65s-.63-1.06-.63-1.88.21-1.45.64-1.88c.42-.43,1.01-.64,1.76-.64h3.84ZM213.44,256.62c.76,0,1.35.22,1.77.65s.63,1.06.63,1.88-.21,1.45-.63,1.88c-.42.43-1.01.64-1.77.64h-3.84c-.76,0-1.35-.22-1.77-.65s-.63-1.06-.63-1.88.21-1.45.64-1.88c.42-.43,1.01-.64,1.76-.64h3.84ZM208.88,252.29v1.59h-1.59v-1.59h1.59Z"/>
      <polygon class="cls-1" points="169.53 223.02 169.53 238.33 173.87 242.67 173.87 282.71 174.27 282.71 174.27 242.51 169.92 238.17 169.92 223.02 169.53 223.02"/>
      <polygon class="cls-1" points="158.75 238.33 158.75 223.02 158.35 223.02 158.35 238.17 154.01 242.51 154.01 282.71 154.4 282.71 154.4 242.67 158.75 238.33"/>
      <rect class="cls-1" x="163.94" y="223.02" width=".4" height="59.69"/>
      <polygon class="cls-1" points="169.28 243.74 169.28 243.65 167.13 241.51 167.13 223.02 166.73 223.02 166.73 241.67 168.88 243.82 168.91 282.71 169.3 282.71 169.28 243.74"/>
      <polygon class="cls-1" points="161.54 241.67 161.54 223.02 161.14 223.02 161.14 241.51 159 243.65 158.97 282.71 159.37 282.71 159.39 243.82 161.54 241.67"/>
      <rect class="cls-1" x="173.48" y="283.87" width="1.19" height="3.23"/>
      <rect class="cls-1" x="168.51" y="283.87" width="1.19" height="3.23"/>
      <rect class="cls-1" x="163.54" y="283.87" width="1.19" height="3.23"/>
      <rect class="cls-1" x="158.58" y="283.87" width="1.19" height="3.23"/>
      <rect class="cls-1" x="153.61" y="283.87" width="1.19" height="3.23"/>
      <rect class="cls-1" x="231.03" y="70.65" width="2.24" height="1.45"/>
      <rect class="cls-1" x="243.09" y="70.65" width="2.24" height="1.45"/>
      <rect class="cls-1" x="213.52" y="62.09" width="1.45" height="1.45"/>
      <rect class="cls-1" x="221.33" y="62.09" width="1.45" height="1.45"/>
      <rect class="cls-1" x="225.23" y="62.09" width="1.45" height="1.45"/>
      <rect class="cls-1" x="127.38" y="185.39" width="1.83" height="1.83"/>
    </g>
  </g>
</svg>