<svg width="20" height="40" viewBox="0 0 20 40" fill="none" xmlns="http://www.w3.org/2000/svg">
<path id="Vector" d="M12.5 40C14.4891 40 16.3968 39.2098 17.8033 37.8033C19.2098 36.3968 20 34.4891 20 32.5V10C20 7.34784 18.9464 4.8043 17.0711 2.92893C15.1957 1.05357 12.6522 0 10 0C7.34783 0 4.8043 1.05357 2.92893 2.92893C1.05357 4.8043 0 7.34784 0 10V35.625H2.5V10C2.5 8.01088 3.29017 6.10322 4.6967 4.6967C6.10322 3.29018 8.01088 2.5 10 2.5C11.9891 2.5 13.8968 3.29018 15.3033 4.6967C16.7098 6.10322 17.5 8.01088 17.5 10V32.5C17.5 33.8261 16.9732 35.0979 16.0355 36.0355C15.0979 36.9732 13.8261 37.5 12.5 37.5C11.1739 37.5 9.90215 36.9732 8.96447 36.0355C8.02678 35.0979 7.5 33.8261 7.5 32.5V10C7.5 9.33696 7.76339 8.70107 8.23223 8.23223C8.70107 7.76339 9.33696 7.5 10 7.5C10.663 7.5 11.2989 7.76339 11.7678 8.23223C12.2366 8.70107 12.5 9.33696 12.5 10V25H15V10C15 8.67392 14.4732 7.40215 13.5355 6.46447C12.5979 5.52678 11.3261 5 10 5C8.67392 5 7.40215 5.52678 6.46447 6.46447C5.52678 7.40215 5 8.67392 5 10V32.5C5 34.4891 5.79018 36.3968 7.1967 37.8033C8.60322 39.2098 10.5109 40 12.5 40Z" fill="#171717"/>
</svg>
