<svg width="100" height="100" viewBox="0 0 100 100" fill="none" xmlns="http://www.w3.org/2000/svg">
<path id="Vector" d="M77.7241 31.7868C77.7241 36.1631 74.1764 39.7108 69.8001 39.7108C65.4238 39.7108 61.8761 36.1631 61.8761 31.7868C61.8761 27.4106 65.4238 23.8629 69.8001 23.8629C74.1764 23.8629 77.7241 27.4106 77.7241 31.7868ZM69.8001 40.7108C74.7287 40.7108 78.7241 36.7154 78.7241 31.7868C78.7241 26.8583 74.7287 22.8629 69.8001 22.8629C64.8715 22.8629 60.8761 26.8583 60.8761 31.7868C60.8761 36.7154 64.8715 40.7108 69.8001 40.7108ZM99.5 50C99.5 77.3381 77.3381 99.5 50 99.5C22.6619 99.5 0.5 77.3381 0.5 50C0.5 22.6619 22.6619 0.5 50 0.5C77.3381 0.5 99.5 22.6619 99.5 50Z" stroke="white"/>
</svg>
